<svg width="60" height="42" viewBox="0 0 60 42" fill="none" xmlns="http://www.w3.org/2000/svg">
<path opacity="0.1" d="M13 36L18.75 26C16 26 13.6458 25.0208 11.6875 23.0625C9.72917 21.1042 8.75 18.75 8.75 16C8.75 13.25 9.72917 10.8958 11.6875 8.9375C13.6458 6.97917 16 6 18.75 6C21.5 6 23.8542 6.97917 25.8125 8.9375C27.7708 10.8958 28.75 13.25 28.75 16C28.75 16.9583 28.6354 17.8438 28.4062 18.6562C28.1771 19.4688 27.8333 20.25 27.375 21L18.75 36H13ZM35.5 36L41.25 26C38.5 26 36.1458 25.0208 34.1875 23.0625C32.2292 21.1042 31.25 18.75 31.25 16C31.25 13.25 32.2292 10.8958 34.1875 8.9375C36.1458 6.97917 38.5 6 41.25 6C44 6 46.3542 6.97917 48.3125 8.9375C50.2708 10.8958 51.25 13.25 51.25 16C51.25 16.9583 51.1354 17.8438 50.9062 18.6562C50.6771 19.4688 50.3333 20.25 49.875 21L41.25 36H35.5ZM18.75 19.75C19.7917 19.75 20.6771 19.3854 21.4062 18.6562C22.1354 17.9271 22.5 17.0417 22.5 16C22.5 14.9583 22.1354 14.0729 21.4062 13.3438C20.6771 12.6146 19.7917 12.25 18.75 12.25C17.7083 12.25 16.8229 12.6146 16.0938 13.3438C15.3646 14.0729 15 14.9583 15 16C15 17.0417 15.3646 17.9271 16.0938 18.6562C16.8229 19.3854 17.7083 19.75 18.75 19.75ZM41.25 19.75C42.2917 19.75 43.1771 19.3854 43.9062 18.6562C44.6354 17.9271 45 17.0417 45 16C45 14.9583 44.6354 14.0729 43.9062 13.3438C43.1771 12.6146 42.2917 12.25 41.25 12.25C40.2083 12.25 39.3229 12.6146 38.5938 13.3438C37.8646 14.0729 37.5 14.9583 37.5 16C37.5 17.0417 37.8646 17.9271 38.5938 18.6562C39.3229 19.3854 40.2083 19.75 41.25 19.75Z" fill="#313331"/>
</svg>
