<?xml version="1.0" encoding="UTF-8" standalone="no"?>
<!-- Created with Inkscape (http://www.inkscape.org/) -->

<svg
   version="1.1"
   id="svg1"
   width="500"
   height="500"
   viewBox="0 0 500 500"
   xmlns="http://www.w3.org/2000/svg"
   xmlns:svg="http://www.w3.org/2000/svg">
  <defs
     id="defs1" />
  <g
     id="g1">
    <rect
       style="fill:#333333;fill-opacity:1;stroke:#333333;stroke-width:1.1531;stroke-opacity:1"
       id="rect1"
       width="498.60776"
       height="502.32516"
       x="0.69613022"
       y="0.076550424" />
    <path
       style="fill:#ffffff;stroke:#ffffff;stroke-opacity:1;fill-opacity:1"
       d="m 101.18235,432.27032 -6.176379,-1.34268 -5.32362,-3.4076 -5.32361,-3.40761 -3.39189,-3.8666 -3.39188,-3.86661 -2.60812,-5.55361 -2.60811,-5.55361 -0.26704,-110.73096 -0.26704,-110.73097 2.09803,-6.26903 2.09803,-6.26904 3.34714,-4.32187 3.34714,-4.32186 4.32187,-3.35379 4.32187,-3.35378 5.24987,-2.05971 5.249869,-2.0597 92.25013,-0.32333 92.25013,-0.32333 11.06919,0.65367 11.06919,0.65367 6.2434,3.3277 6.2434,3.3277 4.31316,4.79728 4.31317,4.79727 2.20172,4.68397 2.20173,4.68397 0.91673,5.59607 0.91673,5.59607 -0.01,68 -0.01,68 -0.81132,1.27851 -0.81133,1.27852 -14.42336,-0.27852 -14.42241,-0.27851 -0.5,-68.54462 -0.5,-68.54463 -1.82778,-2.7889 -1.82778,-2.7889 -3.3901,-1.41648 -3.3901,-1.41647 -91.28212,0.004 -91.28212,0.004 -3.08004,1.8782 -3.08003,1.8782 -1.66997,3.51919 -1.66996,3.51919 0.006,98.84887 0.006,98.84887 0.99291,3.57426 0.9929,3.57425 2.58208,2.42575 2.58209,2.42574 h 94.50146 94.50147 l 2.95424,-3.30638 2.95425,-3.30637 0.58873,-2.94363 0.58787,-2.94414 h 14.90638 14.90639 l 0.58557,1.52597 0.58557,1.52596 -1.05056,7.07818 -1.05055,7.07817 -2.62409,5.36344 -2.62408,5.36344 -4.32915,4.45436 -4.32914,4.45436 -4.36317,2.23058 -4.36317,2.23057 -5,1.33562 -5,1.33561 -97,-0.0676 -97,-0.0676 z m 110.17639,-59.17842 -2,-0.44809 -4.77048,-1.52307 -4.77048,-1.52308 -5.03474,-3.97973 -5.03473,-3.97973 -3.44989,-5.39303 -3.44988,-5.39304 -1.50172,-6.47528 -1.50172,-6.47529 0.25682,-69.81478 0.25682,-69.81478 15.25,-0.27605 15.25,-0.27604 v 68.0757 68.07571 l 1.51693,2.93341 1.51692,2.93342 2.93342,1.51692 2.93341,1.51693 92.29966,-0.0147 92.29966,-0.0147 2.46998,-1.24983 2.46999,-1.24983 2.28001,-3.38331 2.28002,-3.3834 V 232.592 131.70776 l -1.36198,-3.21788 -1.36199,-3.21788 -2.243,-2 -2.24301,-2 h -94.47185 -94.47185 l -3.42316,3.73531 -3.42316,3.73532 -0.0153,2.26468 -0.0153,2.26469 -0.81132,1.27851 -0.81133,1.27852 -14.42336,-0.27852 -14.42339,-0.27851 -0.3241,-5 -0.3241,-5 1.23895,-5.88291 1.23895,-5.88291 3.89167,-5.82783 3.89167,-5.82782 3.69348,-2.906194 3.69348,-2.90619 4,-2.00987 4,-2.00987 5.29922,-1.1232 5.29922,-1.12321 h 97.24068 97.24068 l 5.70966,1.48718 5.70966,1.48717 3.75044,2.40934 3.75044,2.40934 4.073,4.353484 4.073,4.35349 1.5235,2.5 1.5235,2.5 1.65061,5 1.65062,5 0.16293,110 0.16293,110 -1.60578,5.24878 -1.60579,5.24879 -3.59164,5.41104 -3.59164,5.41104 -3.21262,2.44196 -3.21262,2.44196 -3.5,1.80399 -3.5,1.80399 -5,1.33236 -5,1.33235 -98.5,-0.10413 -98.5,-0.10413 z"
       id="path1" />
  </g>
</svg>
