<svg width="122" height="25" viewBox="0 0 122 25" fill="none" xmlns="http://www.w3.org/2000/svg">
<g clip-path="url(#clip0_1_27)">
<path d="M113.85 24.2238C112.997 24.2238 112.218 24.0851 111.514 23.8078C110.81 23.5091 110.213 23.1358 109.722 22.6878C109.253 22.2398 108.901 21.7811 108.666 21.3118L108.602 23.9038H105.274V0.383789H108.666V9.43979L108.506 11.9358C108.741 11.3811 109.135 10.8691 109.69 10.3998C110.245 9.93045 110.895 9.55712 111.642 9.27979C112.41 8.98112 113.221 8.83179 114.074 8.83179C115.546 8.83179 116.815 9.16245 117.882 9.82379C118.949 10.4638 119.77 11.3705 120.346 12.5438C120.922 13.6958 121.21 15.0398 121.21 16.5758C121.21 18.1758 120.869 19.5518 120.186 20.7038C119.503 21.8345 118.607 22.7091 117.498 23.3278C116.389 23.9251 115.173 24.2238 113.85 24.2238ZM113.274 21.3438C114.725 21.3438 115.802 20.8851 116.506 19.9678C117.231 19.0505 117.594 17.9198 117.594 16.5758C117.594 15.1891 117.231 14.0478 116.506 13.1518C115.802 12.2345 114.725 11.7758 113.274 11.7758C112.506 11.7758 111.791 11.9678 111.13 12.3518C110.469 12.7145 109.935 13.2371 109.53 13.9198C109.146 14.6025 108.954 15.4131 108.954 16.3518V16.5758C108.975 17.5145 109.178 18.3465 109.562 19.0718C109.946 19.7971 110.458 20.3625 111.098 20.7678C111.759 21.1518 112.485 21.3438 113.274 21.3438Z" fill="#ED8F41"/>
<path d="M96.1815 24.224C94.6455 24.224 93.2908 23.8827 92.1175 23.2C90.9655 22.5174 90.0695 21.5894 89.4295 20.416C88.7895 19.2427 88.4695 17.9414 88.4695 16.512C88.4695 15.104 88.7788 13.824 89.3975 12.672C90.0375 11.4987 90.9335 10.5707 92.0855 9.88803C93.2375 9.18403 94.6028 8.83203 96.1815 8.83203C97.7602 8.83203 99.1255 9.18403 100.277 9.88803C101.429 10.5707 102.315 11.4987 102.933 12.672C103.552 13.824 103.861 15.104 103.861 16.512C103.861 17.9414 103.541 19.2427 102.901 20.416C102.283 21.5894 101.397 22.5174 100.245 23.2C99.0935 23.8827 97.7388 24.224 96.1815 24.224ZM96.2775 21.408C97.5575 21.408 98.5388 20.9387 99.2215 20C99.9255 19.0614 100.277 17.92 100.277 16.576C100.277 15.6587 100.107 14.8374 99.7655 14.112C99.4242 13.3654 98.9335 12.768 98.2935 12.32C97.6748 11.872 96.9388 11.648 96.0855 11.648C95.2535 11.648 94.5388 11.872 93.9415 12.32C93.3441 12.768 92.8748 13.3654 92.5335 14.112C92.2135 14.8374 92.0535 15.6587 92.0535 16.576C92.0535 17.472 92.2348 18.2934 92.5975 19.04C92.9602 19.7654 93.4508 20.3414 94.0695 20.768C94.7095 21.1947 95.4455 21.408 96.2775 21.408Z" fill="#ED8F41"/>
<path d="M81.2374 24.2238C80.512 24.2238 79.6587 24.1278 78.6774 23.9358C77.7174 23.7438 76.896 23.3491 76.2134 22.7518L77.6534 19.4558C78.016 19.8825 78.432 20.2131 78.9014 20.4478C79.392 20.6825 80 20.7998 80.7254 20.7998C81.3654 20.7998 81.888 20.6931 82.2934 20.4798C82.72 20.2451 83.0294 19.8185 83.2214 19.1998C83.4347 18.5811 83.5414 17.6851 83.5414 16.5118V0.383789H87.0934V17.4078C87.0934 19.1145 86.8267 20.4691 86.2934 21.4718C85.76 22.4531 85.0454 23.1571 84.1494 23.5838C83.2747 24.0105 82.304 24.2238 81.2374 24.2238Z" fill="#ED8F41"/>
<path d="M63.801 23.9039V12.0319H61.209V9.21587H63.801V3.23187L67.289 2.46387V9.21587H70.681V12.0319H67.289V23.9039H63.801Z" fill="#46B06B"/>
<path d="M52.3033 23.904V11.968H49.9353V9.216H52.3033V6.048C52.3033 4.14933 52.762 2.66667 53.6793 1.6C54.5966 0.533333 55.962 0 57.7753 0C58.3513 0 58.8633 0.0853335 59.3113 0.256001C59.7806 0.426668 60.09 0.544001 60.2393 0.608L59.5673 3.872C59.4606 3.744 59.2473 3.59467 58.9273 3.424C58.6286 3.232 58.2766 3.136 57.8713 3.136C57.5726 3.136 57.2526 3.2 56.9113 3.328C56.5913 3.43467 56.314 3.69067 56.0793 4.096C55.8446 4.48 55.7166 5.088 55.6953 5.92V9.216H59.1513V11.968H55.6953V23.904H52.3033Z" fill="#46B06B"/>
<path d="M38.267 24.224C36.9656 24.224 35.7496 23.9147 34.619 23.296C33.5096 22.6774 32.6136 21.792 31.931 20.64C31.2483 19.488 30.907 18.112 30.907 16.512C30.907 14.976 31.195 13.632 31.771 12.48C32.3683 11.328 33.2003 10.432 34.267 9.79203C35.355 9.15203 36.6456 8.83203 38.139 8.83203C39.035 8.83203 39.8456 8.99203 40.571 9.31203C41.3176 9.6107 41.9363 9.98403 42.427 10.432C42.939 10.8587 43.2803 11.2747 43.451 11.68L43.515 9.21603H46.811V23.904H43.547L43.483 21.312C43.2696 21.7814 42.907 22.24 42.395 22.688C41.9043 23.136 41.307 23.5094 40.603 23.808C39.899 24.0854 39.1203 24.224 38.267 24.224ZM38.843 21.344C39.6323 21.344 40.347 21.1627 40.987 20.8C41.6483 20.416 42.171 19.8827 42.555 19.2C42.9603 18.5174 43.163 17.7067 43.163 16.768V16.544C43.163 15.584 42.9603 14.752 42.555 14.048C42.171 13.3227 41.6483 12.768 40.987 12.384C40.347 11.9787 39.6323 11.776 38.843 11.776C37.4136 11.776 36.3363 12.2347 35.611 13.152C34.907 14.0694 34.555 15.2 34.555 16.544C34.555 17.9094 34.907 19.0507 35.611 19.968C36.3363 20.8854 37.4136 21.344 38.843 21.344Z" fill="#46B06B"/>
<path d="M20.6438 23.904V9.21603H24.0998V12.096C24.4411 11.136 24.9851 10.3574 25.7318 9.76003C26.4998 9.14136 27.3851 8.83203 28.3878 8.83203C29.0705 8.83203 29.5398 8.89603 29.7958 9.02403L29.3158 12.512C29.1238 12.384 28.7078 12.32 28.0678 12.32C27.5345 12.32 26.9585 12.4374 26.3398 12.672C25.7211 12.9067 25.1878 13.3227 24.7398 13.92C24.3131 14.496 24.0998 15.3067 24.0998 16.352V23.904H20.6438Z" fill="#46B06B"/>
<path d="M11.808 24.128C9.93067 24.128 8.256 23.808 6.784 23.168C5.33333 22.528 4.096 21.6533 3.072 20.544C2.06933 19.4133 1.30133 18.1333 0.768 16.704C0.256 15.2533 0 13.7173 0 12.096C0 10.3253 0.288 8.704 0.864 7.232C1.46133 5.76 2.29333 4.49067 3.36 3.424C4.42667 2.336 5.696 1.49333 7.168 0.896C8.64 0.298667 10.2613 0 12.032 0C13.184 0 14.208 0.117333 15.104 0.351999C16 0.586667 16.736 0.853334 17.312 1.152C17.888 1.42933 18.2507 1.65333 18.4 1.824L16.832 5.024C16.256 4.512 15.5413 4.096 14.688 3.776C13.856 3.456 12.8747 3.296 11.744 3.296C10.272 3.296 8.93867 3.65867 7.744 4.384C6.57067 5.10933 5.632 6.13333 4.928 7.456C4.24533 8.77867 3.904 10.3467 3.904 12.16C3.904 13.76 4.20267 15.2213 4.8 16.544C5.39733 17.8453 6.272 18.8907 7.424 19.68C8.59733 20.4693 10.016 20.864 11.68 20.864C12.5973 20.864 13.4933 20.7467 14.368 20.512C15.264 20.256 16.1813 19.84 17.12 19.264L18.176 22.304C17.8987 22.56 17.4293 22.8373 16.768 23.136C16.1067 23.4133 15.3387 23.648 14.464 23.84C13.6107 24.032 12.7253 24.128 11.808 24.128Z" fill="#46B06B"/>
</g>
<defs>
<clipPath id="clip0_1_27">
<rect width="121.21" height="24.224" fill="white"/>
</clipPath>
</defs>
</svg>
