<svg width="16" height="22" viewBox="0 0 16 22" fill="none" xmlns="http://www.w3.org/2000/svg">
<path d="M7.943 5.07975L3.248 0.538746C2.97752 0.277151 2.63599 0.100993 2.26604 0.0322475C1.89608 -0.0364979 1.51408 0.00521365 1.16768 0.152178C0.821278 0.299143 0.525815 0.544853 0.318161 0.858656C0.110507 1.17246 -0.000146147 1.54046 1.4487e-07 1.91675V13.5067C9.81074e-05 13.8922 0.0776932 14.2738 0.22818 14.6287C0.378667 14.9836 0.598973 15.3047 0.876 15.5727L6.61 21.1187C6.96731 21.4643 7.44493 21.6575 7.942 21.6575C8.43908 21.6575 8.9167 21.4643 9.274 21.1187L15.009 15.5727C15.286 15.3047 15.5063 14.9836 15.6568 14.6287C15.8073 14.2738 15.8849 13.8922 15.885 13.5067V1.91675C15.8851 1.54046 15.7745 1.17246 15.5668 0.858656C15.3592 0.544853 15.0637 0.299143 14.7173 0.152178C14.3709 0.00521365 13.9889 -0.0364979 13.619 0.0322475C13.249 0.100993 12.9075 0.277151 12.637 0.538746L7.943 5.07975ZM13.182 13.1737C13.1822 13.3023 13.1564 13.4296 13.1062 13.548C13.056 13.6664 12.9825 13.7734 12.89 13.8627L7.943 18.6467V8.84175L8.883 7.93275L12.365 4.55975C12.4326 4.49438 12.5179 4.45035 12.6104 4.43314C12.7028 4.41594 12.7983 4.42633 12.8848 4.46301C12.9714 4.49969 13.0453 4.56104 13.0973 4.63941C13.1492 4.71779 13.1769 4.80972 13.177 4.90375L13.182 13.1737Z" fill="#46B06B"/>
</svg>
