<svg width="22" height="20" viewBox="0 0 22 20" fill="none" xmlns="http://www.w3.org/2000/svg">
<path d="M6.44021 19.3212V17.1742H8.5872V15.0272H2.14721C1.86481 15.0312 1.5846 14.9773 1.32386 14.8687C1.06312 14.7602 0.82738 14.5994 0.631201 14.3962C0.428158 14.2001 0.267426 13.9646 0.158903 13.704C0.0503808 13.4434 -0.00362961 13.1634 0.000204347 12.8812V2.14718C-0.00376675 1.86478 0.0501783 1.58461 0.158705 1.32387C0.267232 1.06313 0.428034 0.827365 0.631201 0.631186C0.82738 0.428019 1.06312 0.267239 1.32386 0.158713C1.5846 0.0501859 1.86481 -0.00376677 2.14721 0.00020432H19.3212C19.6036 -0.00376677 19.8838 0.0501859 20.1446 0.158713C20.4053 0.267239 20.641 0.428019 20.8372 0.631186C21.0404 0.827365 21.2012 1.06313 21.3097 1.32387C21.4182 1.58461 21.4722 1.86478 21.4682 2.14718V12.8812C21.4722 13.1636 21.4182 13.4438 21.3097 13.7045C21.2012 13.9653 21.0404 14.201 20.8372 14.3972C20.641 14.6003 20.4053 14.7612 20.1446 14.8697C19.8838 14.9782 19.6036 15.0322 19.3212 15.0282H12.8812V17.1752H15.0282V19.3222L6.44021 19.3212ZM2.14621 12.8812H19.3212V2.14718H2.14721L2.14621 12.8812Z" fill="#46B06B"/>
</svg>
