<svg width="233" height="76" viewBox="0 0 233 76" fill="none" xmlns="http://www.w3.org/2000/svg">
<path d="M17.243 9.90329L16.995 9.67929C16.92 9.61329 16.97 9.67129 16.945 9.66229L16.92 9.68729L16.87 9.73729L16.77 9.84529L16.57 10.0523L16.181 10.4833C15.924 10.7733 15.667 11.0633 15.427 11.3693C14.927 11.9693 14.466 12.5863 14.019 13.2163C13.1294 14.4853 12.3323 15.8167 11.634 17.2003C10.2499 19.9668 9.22042 22.897 8.57004 25.9213C7.29268 31.9691 7.33805 38.2216 8.70304 44.2503C10.0471 50.2459 12.5991 55.9048 16.203 60.8813C19.8175 65.8116 24.336 70.01 29.518 73.2533L28.325 75.0753C23.0497 71.5361 18.4938 67.028 14.899 61.7903C11.3284 56.5676 8.85985 50.6719 7.64404 44.4633C6.41655 38.2839 6.54381 31.9118 8.01704 25.7863C8.75526 22.744 9.8769 19.8079 11.355 17.0483C12.0917 15.6732 12.9307 14.3555 13.865 13.1063C14.329 12.4773 14.817 11.8723 15.331 11.2843C15.588 10.9843 15.853 10.7043 16.118 10.4233L16.524 10.0013L16.731 9.7943L16.831 9.69429L16.881 9.64429L16.906 9.61929C16.906 9.61929 16.947 9.64429 16.889 9.56929L16.665 9.32129L17.245 9.89229L17.243 9.90329Z" fill="#EDAD00"/>
<path d="M16.1009 7.824C15.583 8.33035 15.21 8.96608 15.0206 9.66523C14.8312 10.3644 14.8324 11.1014 15.0239 11.8C15.6932 11.8582 16.3672 11.7795 17.0051 11.5687C17.6429 11.3579 18.2311 11.0195 18.7339 10.574C19.1982 10.0893 19.5599 9.51605 19.7976 8.88839C20.0352 8.26073 20.1438 7.59159 20.1169 6.921C19.4269 6.69673 18.6893 6.66193 17.9813 6.82026C17.2732 6.97858 16.6207 7.32421 16.0919 7.821L16.1009 7.824Z" fill="#EDAD00"/>
<path d="M11.9567 19.7765C11.3386 19.9656 10.7776 20.3065 10.3248 20.7679C9.8721 21.2294 9.54204 21.7968 9.36475 22.4185C10.6472 22.8942 12.0547 22.9119 13.3487 22.4685C13.9039 22.3037 14.4178 22.0228 14.8562 21.6443C15.2946 21.2659 15.6476 20.7986 15.8917 20.2735C15.3017 19.9339 14.6497 19.7158 13.9741 19.6318C13.2985 19.5478 12.613 19.5997 11.9577 19.7845L11.9567 19.7765Z" fill="#EDAD00"/>
<path d="M9.09378 18.5083C9.61598 19.7307 9.64571 21.1076 9.17678 22.3513C8.48631 22.1743 7.84599 21.8404 7.30566 21.3755C6.76532 20.9106 6.33955 20.3273 6.06146 19.671C5.78337 19.0147 5.66047 18.303 5.70233 17.5914C5.74419 16.8799 5.94967 16.1876 6.30278 15.5684C7.57962 16.1487 8.58055 17.2031 9.09378 18.5083Z" fill="#EDAD00"/>
<path d="M14.6697 14.322C14.1515 14.3769 13.655 14.5591 13.2244 14.8524C12.7938 15.1457 12.4424 15.541 12.2017 16.003C13.1416 16.5836 14.2536 16.8207 15.3487 16.674C15.8192 16.6286 16.2743 16.4822 16.6832 16.2449C17.092 16.0077 17.4448 15.685 17.7177 15.299C17.2988 14.9438 16.814 14.6746 16.291 14.507C15.7679 14.3393 15.217 14.2765 14.6697 14.322Z" fill="#EDAD00"/>
<path d="M12.5978 12.8849C12.8219 13.9312 12.6319 15.0236 12.0678 15.9329C11.5642 15.6818 11.1215 15.3237 10.7708 14.8835C10.4202 14.4434 10.17 13.9319 10.0378 13.3849C9.91341 12.8173 9.92084 12.2287 10.0595 11.6644C10.1982 11.1001 10.4645 10.5752 10.8378 10.1299C11.7605 10.7842 12.3952 11.7693 12.6098 12.8799L12.5978 12.8849Z" fill="#EDAD00"/>
<path d="M9.97066 26.3336C9.33506 26.6688 8.79407 27.1586 8.39754 27.7579C8.00101 28.3571 7.76169 29.0465 7.70166 29.7626C9.2013 30.0108 10.7406 29.7328 12.0587 28.9756C12.6307 28.678 13.1328 28.2618 13.5313 27.7549C13.9298 27.2479 14.2156 26.6618 14.3697 26.0356C13.6533 25.7894 12.895 25.6892 12.1393 25.7407C11.3837 25.7922 10.6459 25.9945 9.96966 26.3356L9.97066 26.3336Z" fill="#EDAD00"/>
<path d="M6.58387 25.5555C7.41443 26.7772 7.73719 28.2741 7.48386 29.7295C6.69335 29.6818 5.92445 29.4526 5.2369 29.0596C4.54934 28.6665 3.96162 28.1203 3.51938 27.4634C3.07714 26.8064 2.79228 26.0563 2.68692 25.2714C2.58156 24.4865 2.65853 23.6878 2.91187 22.9375C4.42787 23.3035 5.74362 24.2416 6.58387 25.5555Z" fill="#EDAD00"/>
<path d="M9.24307 33.7143C8.60467 34.2226 8.10496 34.8839 7.7903 35.6368C7.47563 36.3897 7.3562 37.2099 7.44307 38.0213C9.17075 37.9702 10.8291 37.3302 12.1431 36.2073C12.7162 35.7579 13.187 35.1916 13.5241 34.546C13.8612 33.9004 14.0569 33.1904 14.0981 32.4633C13.2479 32.3403 12.3817 32.3875 11.5499 32.6023C10.7182 32.817 9.93741 33.195 9.25307 33.7143H9.24307Z" fill="#EDAD00"/>
<path d="M5.29204 33.5651C6.47263 34.7589 7.15234 36.3587 7.19204 38.0371C6.29649 38.1571 5.38532 38.0677 4.53013 37.7761C3.67493 37.4845 2.899 36.9985 2.2633 36.3564C1.6276 35.7143 1.14945 34.9336 0.866404 34.0755C0.583361 33.2175 0.50314 32.3054 0.632043 31.4111C2.40152 31.4983 4.06768 32.2704 5.27804 33.5641L5.29204 33.5651Z" fill="#EDAD00"/>
<path d="M9.95511 41.7739C9.36066 42.468 8.95353 43.3026 8.77239 44.1983C8.59124 45.0941 8.64209 46.0213 8.92011 46.8919C10.7988 46.4455 12.473 45.3809 13.6741 43.8689C14.2045 43.2591 14.5992 42.5435 14.8319 41.7696C15.0647 40.9956 15.1302 40.1811 15.0241 39.3799C14.062 39.4226 13.1181 39.6569 12.2477 40.069C11.3773 40.4811 10.5979 41.0628 9.95511 41.7799V41.7739Z" fill="#EDAD00"/>
<path d="M5.582 42.4607C7.13779 43.5215 8.23539 45.131 8.655 46.9667C7.71836 47.2846 6.72224 47.3879 5.74029 47.269C4.75835 47.1501 3.81568 46.812 2.982 46.2797C2.11875 45.698 1.40084 44.9257 0.883765 44.0223C0.366691 43.1189 0.0643095 42.1086 0 41.0697C1.96783 40.7977 3.96471 41.296 5.574 42.4607H5.582Z" fill="#EDAD00"/>
<path d="M12.4073 50.1787C11.9176 51.0621 11.6648 52.0573 11.6736 53.0673C11.6823 54.0774 11.9523 55.0679 12.4573 55.9427C14.38 55.0132 15.9432 53.4764 16.9053 51.5697C17.3421 50.8021 17.6101 49.9501 17.6915 49.0706C17.7729 48.1912 17.6658 47.3045 17.3773 46.4697C16.3434 46.7256 15.3711 47.1857 14.5178 47.823C13.6644 48.4604 12.9472 49.262 12.4083 50.1807L12.4073 50.1787Z" fill="#EDAD00"/>
<path d="M7.81822 51.9016C9.74093 52.7103 11.2979 54.1997 12.1912 56.0846C11.2499 56.6486 10.1932 56.9922 9.10027 57.0897C8.00731 57.1872 6.90646 57.036 5.88022 56.6476C4.80333 56.2045 3.84323 55.5188 3.07469 54.6439C2.30614 53.769 1.74988 52.7286 1.44922 51.6036C3.53024 50.8757 5.81196 50.9796 7.81822 51.8936V51.9016Z" fill="#EDAD00"/>
<path d="M16.8601 58.4618C16.5418 59.522 16.5066 60.6471 16.758 61.7252C17.0094 62.8032 17.5386 63.7967 18.2931 64.6068C20.1156 63.1424 21.4122 61.1249 21.9871 58.8588C22.273 57.9448 22.3618 56.9805 22.2475 56.0296C22.1332 55.0788 21.8185 54.163 21.3241 53.3428C20.2756 53.8553 19.3399 54.572 18.572 55.4508C17.8041 56.3297 17.2194 57.353 16.8521 58.4608L16.8601 58.4618Z" fill="#EDAD00"/>
<path d="M12.3409 61.3946C14.5951 61.8103 16.6211 63.032 18.0409 64.8316C17.1734 65.6684 16.1263 66.2959 14.9793 66.6663C13.8323 67.0366 12.6159 67.14 11.4229 66.9686C10.153 66.7474 8.95178 66.2344 7.91403 65.4698C6.87627 64.7051 6.03032 63.7099 5.44287 62.5626C7.50791 61.3024 9.97929 60.8869 12.3429 61.4026L12.3409 61.3946Z" fill="#EDAD00"/>
<path d="M215.036 9.90329L215.284 9.67929C215.359 9.61329 215.309 9.67129 215.334 9.66229L215.359 9.68729L215.409 9.73729L215.509 9.84529L215.709 10.0523L216.098 10.4833C216.355 10.7733 216.612 11.0633 216.852 11.3693C217.352 11.9693 217.813 12.5863 218.26 13.2163C219.153 14.4834 219.95 15.815 220.645 17.2003C222.029 19.9668 223.059 22.897 223.709 25.9213C224.987 31.9691 224.941 38.2216 223.576 44.2503C222.232 50.2459 219.68 55.9048 216.076 60.8813C212.462 65.8115 207.944 70.0099 202.762 73.2533L203.955 75.0753C209.231 71.5361 213.786 67.028 217.381 61.7903C220.952 56.5676 223.42 50.6719 224.636 44.4633C225.864 38.2839 225.736 31.9118 224.263 25.7863C223.525 22.744 222.403 19.8079 220.925 17.0483C220.189 15.6732 219.35 14.3555 218.415 13.1063C217.951 12.4773 217.463 11.8723 216.949 11.2843C216.692 10.9843 216.435 10.7043 216.162 10.4233L215.756 10.0013L215.549 9.7943L215.449 9.69429L215.399 9.64429L215.374 9.61929C215.374 9.61929 215.333 9.64429 215.391 9.56929L215.615 9.32129L215.035 9.89229L215.036 9.90329Z" fill="#EDAD00"/>
<path d="M216.188 7.82397C216.706 8.33032 217.079 8.96605 217.269 9.6652C217.458 10.3643 217.457 11.1014 217.265 11.8C216.595 11.8849 215.914 11.819 215.272 11.6072C214.63 11.3953 214.044 11.0427 213.555 10.5753C213.067 10.1078 212.69 9.53721 212.45 8.90516C212.211 8.27311 212.115 7.59556 212.171 6.92197C212.861 6.6977 213.599 6.66291 214.307 6.82123C215.015 6.97956 215.668 7.32517 216.196 7.82197L216.188 7.82397Z" fill="#EDAD00"/>
<path d="M220.329 19.7765C220.947 19.9656 221.508 20.3065 221.961 20.7679C222.414 21.2294 222.744 21.7968 222.921 22.4185C221.639 22.8942 220.231 22.9119 218.937 22.4685C218.382 22.3037 217.868 22.0228 217.43 21.6443C216.991 21.2659 216.638 20.7986 216.394 20.2735C216.984 19.9339 217.636 19.7158 218.312 19.6318C218.987 19.5478 219.673 19.5997 220.328 19.7845L220.329 19.7765Z" fill="#EDAD00"/>
<path d="M223.187 18.5083C222.665 19.7307 222.635 21.1076 223.104 22.3513C223.794 22.1743 224.435 21.8404 224.975 21.3755C225.515 20.9106 225.941 20.3273 226.219 19.671C226.497 19.0147 226.62 18.303 226.578 17.5914C226.536 16.8799 226.331 16.1876 225.978 15.5684C224.701 16.1487 223.7 17.2031 223.187 18.5083Z" fill="#EDAD00"/>
<path d="M217.621 14.3214C218.139 14.3763 218.636 14.5585 219.066 14.8518C219.497 15.1451 219.848 15.5404 220.089 16.0024C219.149 16.5831 218.037 16.8202 216.942 16.6734C216.472 16.628 216.017 16.4816 215.608 16.2444C215.199 16.0071 214.846 15.6844 214.573 15.2984C214.991 14.9416 215.476 14.6708 215.999 14.5016C216.522 14.3324 217.073 14.2681 217.621 14.3124V14.3214Z" fill="#EDAD00"/>
<path d="M219.692 12.8848C219.464 13.931 219.654 15.025 220.222 15.9328C220.738 15.6845 221.19 15.3215 221.544 14.8716C221.898 14.4217 222.144 13.8968 222.264 13.3371C222.384 12.7774 222.374 12.1976 222.236 11.6422C222.097 11.0868 221.833 10.5705 221.464 10.1328C220.541 10.7876 219.906 11.7735 219.692 12.8848Z" fill="#EDAD00"/>
<path d="M222.308 26.3332C222.944 26.6684 223.485 27.1582 223.881 27.7575C224.278 28.3567 224.517 29.0462 224.577 29.7622C223.078 30.0106 221.538 29.7325 220.22 28.9752C219.648 28.6777 219.146 28.2615 218.748 27.7545C218.349 27.2475 218.063 26.6614 217.909 26.0352C218.625 25.7889 219.383 25.6884 220.139 25.7395C220.894 25.7907 221.632 25.9926 222.308 26.3332Z" fill="#EDAD00"/>
<path d="M225.696 25.5555C224.866 26.7772 224.543 28.2741 224.796 29.7295C225.587 29.683 226.357 29.4546 227.046 29.0621C227.734 28.6696 228.323 28.1235 228.766 27.4664C229.209 26.8092 229.495 26.0587 229.601 25.2733C229.706 24.4878 229.63 23.6885 229.376 22.9375C227.861 23.304 226.547 24.2416 225.707 25.5545L225.696 25.5555Z" fill="#EDAD00"/>
<path d="M223.037 33.7143C223.677 34.2214 224.178 34.8824 224.493 35.6357C224.807 36.3889 224.926 37.2097 224.837 38.0213C223.109 37.9702 221.451 37.3302 220.137 36.2073C219.564 35.7579 219.093 35.1916 218.756 34.546C218.419 33.9004 218.223 33.1904 218.182 32.4633C219.032 32.3403 219.898 32.3875 220.73 32.6023C221.562 32.817 222.343 33.195 223.027 33.7143H223.037Z" fill="#EDAD00"/>
<path d="M226.988 33.5651C225.808 34.7589 225.128 36.3587 225.088 38.0371C225.984 38.1571 226.895 38.0677 227.75 37.7761C228.605 37.4845 229.381 36.9985 230.017 36.3564C230.653 35.7143 231.131 34.9336 231.414 34.0755C231.697 33.2175 231.777 32.3054 231.648 31.4111C229.877 31.4997 228.208 32.2714 226.993 33.5641L226.988 33.5651Z" fill="#EDAD00"/>
<path d="M222.324 41.7739C222.919 42.468 223.326 43.3026 223.507 44.1983C223.688 45.0941 223.637 46.0213 223.359 46.8919C221.481 46.4455 219.806 45.3809 218.605 43.8689C218.075 43.2591 217.68 42.5435 217.448 41.7696C217.215 40.9956 217.149 40.1811 217.255 39.3799C218.217 39.4226 219.161 39.6569 220.032 40.069C220.902 40.4811 221.682 41.0628 222.324 41.7799V41.7739Z" fill="#EDAD00"/>
<path d="M226.698 42.4607C225.143 43.5215 224.045 45.131 223.625 46.9667C224.562 47.2846 225.558 47.3879 226.54 47.269C227.522 47.1501 228.465 46.812 229.298 46.2797C230.161 45.6968 230.878 44.9241 231.394 44.0209C231.911 43.1178 232.214 42.1082 232.28 41.0697C230.313 40.7977 228.316 41.296 226.706 42.4607H226.698Z" fill="#EDAD00"/>
<path d="M219.874 50.1787C220.364 51.0621 220.617 52.0573 220.608 53.0673C220.599 54.0774 220.329 55.0679 219.824 55.9427C217.901 55.0132 216.338 53.4764 215.376 51.5697C214.939 50.8021 214.671 49.9501 214.59 49.0706C214.509 48.1912 214.616 47.3045 214.904 46.4697C215.938 46.7253 216.91 47.1851 217.764 47.822C218.617 48.459 219.335 49.2603 219.874 50.1787Z" fill="#EDAD00"/>
<path d="M224.467 51.9017C222.545 52.7104 220.988 54.1997 220.094 56.0847C221.036 56.6486 222.092 56.9922 223.185 57.0897C224.278 57.1872 225.379 57.0361 226.405 56.6477C227.482 56.2045 228.442 55.5189 229.211 54.644C229.979 53.7691 230.536 52.7287 230.836 51.6037C228.755 50.8757 226.473 50.9796 224.467 51.8937V51.9017Z" fill="#EDAD00"/>
<path d="M215.434 58.4618C215.753 59.522 215.788 60.6471 215.536 61.7252C215.285 62.8033 214.756 63.7968 214.001 64.6068C212.179 63.1424 210.882 61.1249 210.307 58.8588C210.019 57.9451 209.929 56.9804 210.044 56.0293C210.158 55.0781 210.474 54.1622 210.97 53.3428C212.019 53.8553 212.954 54.572 213.722 55.4508C214.49 56.3297 215.075 57.353 215.442 58.4608L215.434 58.4618Z" fill="#EDAD00"/>
<path d="M219.939 61.3946C217.685 61.8103 215.659 63.032 214.239 64.8316C215.107 65.6684 216.154 66.2959 217.301 66.6663C218.448 67.0366 219.664 67.14 220.857 66.9686C222.127 66.7474 223.328 66.2344 224.366 65.4698C225.404 64.7051 226.25 63.7099 226.837 62.5626C224.772 61.3024 222.301 60.8869 219.937 61.4026L219.939 61.3946Z" fill="#EDAD00"/>
<path d="M38.3413 26.4374H40.0213V34.9274H38.3413V26.4374ZM41.0413 25.4624H42.7663V37.1624C42.7663 37.6424 42.7113 38.0174 42.6013 38.2874C42.4913 38.5574 42.3013 38.7674 42.0313 38.9174C41.7513 39.0574 41.3913 39.1474 40.9513 39.1874C40.5213 39.2374 40.0163 39.2624 39.4363 39.2624C39.3963 39.0124 39.3213 38.7124 39.2113 38.3624C39.1113 38.0124 39.0063 37.7074 38.8963 37.4474C39.2863 37.4574 39.6513 37.4674 39.9913 37.4774C40.3413 37.4774 40.5813 37.4774 40.7113 37.4774C40.8313 37.4674 40.9163 37.4424 40.9663 37.4024C41.0163 37.3624 41.0413 37.2774 41.0413 37.1474V25.4624ZM32.6713 25.2974H34.3813V39.2774H32.6713V25.2974ZM35.7013 32.6624H37.3213V36.5024C37.3213 36.8524 37.2863 37.1374 37.2163 37.3574C37.1463 37.5774 37.0013 37.7574 36.7813 37.8974C36.5613 38.0174 36.3063 38.0924 36.0163 38.1224C35.7263 38.1524 35.3963 38.1624 35.0263 38.1524C35.0063 37.9324 34.9513 37.6774 34.8613 37.3874C34.7713 37.0974 34.6763 36.8474 34.5763 36.6374C34.7863 36.6474 34.9763 36.6524 35.1463 36.6524C35.3263 36.6524 35.4513 36.6524 35.5213 36.6524C35.6413 36.6524 35.7013 36.5924 35.7013 36.4724V32.6624ZM29.8363 32.6624H36.3313V34.2674H31.4413V38.0774H29.8363V32.6624ZM29.2513 29.9474H37.6663V31.5824H29.2513V29.9474ZM30.8113 27.2024H37.0813V28.8224H30.4813L30.8113 27.2024ZM30.3913 25.4774L32.0563 25.8224C31.8863 26.6024 31.6663 27.3724 31.3963 28.1324C31.1363 28.8924 30.8613 29.5374 30.5713 30.0674C30.4613 29.9874 30.3063 29.9074 30.1063 29.8274C29.9163 29.7374 29.7213 29.6574 29.5213 29.5874C29.3313 29.5074 29.1613 29.4424 29.0113 29.3924C29.3213 28.9124 29.5963 28.3174 29.8363 27.6074C30.0763 26.8974 30.2613 26.1874 30.3913 25.4774ZM51.0913 27.6524H58.2763V29.3624H50.2363L51.0913 27.6524ZM53.0563 30.9374H57.9013V32.5874H53.0563V30.9374ZM53.0413 34.2674H58.0963V35.9474H53.0413V34.2674ZM52.1413 28.2224H54.0013V39.2774H52.1413V28.2224ZM51.4363 25.3424L53.1613 25.7924C52.8813 26.6024 52.5513 27.4074 52.1713 28.2074C51.8013 29.0074 51.3963 29.7574 50.9563 30.4574C50.5163 31.1474 50.0663 31.7574 49.6063 32.2874C49.5163 32.1674 49.3863 32.0274 49.2163 31.8674C49.0463 31.7074 48.8713 31.5524 48.6913 31.4024C48.5213 31.2424 48.3663 31.1174 48.2263 31.0274C48.6763 30.5774 49.0963 30.0474 49.4863 29.4374C49.8863 28.8274 50.2513 28.1724 50.5813 27.4724C50.9213 26.7624 51.2063 26.0524 51.4363 25.3424ZM47.4613 25.2524L49.2013 25.8074C48.8813 26.6574 48.5013 27.5124 48.0613 28.3724C47.6213 29.2324 47.1413 30.0474 46.6213 30.8174C46.1013 31.5774 45.5663 32.2424 45.0163 32.8124C44.9563 32.6624 44.8663 32.4674 44.7463 32.2274C44.6363 31.9874 44.5163 31.7424 44.3863 31.4924C44.2563 31.2424 44.1363 31.0424 44.0263 30.8924C44.4863 30.4324 44.9263 29.9024 45.3463 29.3024C45.7763 28.7024 46.1713 28.0574 46.5313 27.3674C46.9013 26.6774 47.2113 25.9724 47.4613 25.2524ZM45.9463 29.4074L47.7613 27.5924V27.6074V39.2624H45.9463V29.4074ZM60.0913 37.0724C60.9813 37.0424 62.0113 37.0124 63.1813 36.9824C64.3613 36.9424 65.5963 36.8974 66.8863 36.8474C68.1863 36.7974 69.4663 36.7474 70.7263 36.6974L70.6663 38.3474C69.4463 38.4174 68.2063 38.4774 66.9463 38.5274C65.6963 38.5874 64.5063 38.6424 63.3763 38.6924C62.2463 38.7524 61.2263 38.8024 60.3163 38.8424L60.0913 37.0724ZM60.0163 32.6174H72.4813V34.2974H60.0163V32.6174ZM62.6863 29.7224H69.7213V31.3724H62.6863V29.7224ZM63.6763 33.7124L65.7313 34.2674C65.5013 34.7374 65.2563 35.2174 64.9963 35.7074C64.7463 36.1874 64.4963 36.6474 64.2463 37.0874C64.0063 37.5274 63.7763 37.9174 63.5563 38.2574L61.9813 37.7324C62.1813 37.3624 62.3913 36.9474 62.6113 36.4874C62.8313 36.0174 63.0313 35.5424 63.2113 35.0624C63.4013 34.5724 63.5563 34.1224 63.6763 33.7124ZM67.4113 35.2574L68.9863 34.4174C69.4363 34.8074 69.8813 35.2274 70.3213 35.6774C70.7613 36.1274 71.1663 36.5824 71.5363 37.0424C71.9063 37.4924 72.2063 37.9074 72.4363 38.2874L70.7563 39.3074C70.5563 38.9274 70.2713 38.4974 69.9013 38.0174C69.5413 37.5474 69.1413 37.0674 68.7013 36.5774C68.2713 36.0874 67.8413 35.6474 67.4113 35.2574ZM66.1813 26.9474C65.7813 27.5174 65.2663 28.1024 64.6363 28.7024C64.0063 29.2924 63.3063 29.8524 62.5363 30.3824C61.7663 30.9124 60.9663 31.3774 60.1363 31.7774C60.0763 31.6274 59.9813 31.4624 59.8513 31.2824C59.7313 31.0924 59.6013 30.9124 59.4613 30.7424C59.3313 30.5624 59.2013 30.4074 59.0713 30.2774C59.9313 29.8974 60.7563 29.4274 61.5463 28.8674C62.3363 28.2974 63.0413 27.6974 63.6613 27.0674C64.2913 26.4274 64.7913 25.8124 65.1613 25.2224H67.0513C67.4513 25.7724 67.8963 26.2924 68.3863 26.7824C68.8763 27.2724 69.3963 27.7224 69.9463 28.1324C70.4963 28.5324 71.0613 28.8924 71.6413 29.2124C72.2313 29.5224 72.8263 29.7874 73.4263 30.0074C73.2063 30.2274 72.9963 30.4874 72.7963 30.7874C72.5963 31.0874 72.4163 31.3724 72.2563 31.6424C71.5063 31.2924 70.7463 30.8624 69.9763 30.3524C69.2063 29.8424 68.4863 29.2924 67.8163 28.7024C67.1563 28.1124 66.6113 27.5274 66.1813 26.9474ZM79.8463 37.0874H88.3813V38.8574H79.8463V37.0874ZM80.4613 29.8424H88.0213V31.5824H80.4613V29.8424ZM83.3113 25.3424H85.1713V37.9424H83.3113V25.3424ZM74.4613 27.9824H79.3663V29.6024H74.4613V27.9824ZM76.6063 33.0974L78.3913 30.9674V39.2924H76.6063V33.0974ZM76.6063 25.2074H78.3913V28.7324H76.6063V25.2074ZM78.1963 31.4774C78.3363 31.5674 78.5263 31.7174 78.7663 31.9274C79.0163 32.1274 79.2813 32.3524 79.5613 32.6024C79.8413 32.8424 80.0963 33.0674 80.3263 33.2774C80.5563 33.4774 80.7213 33.6224 80.8213 33.7124L79.7413 35.1824C79.5913 34.9924 79.4063 34.7724 79.1863 34.5224C78.9763 34.2624 78.7513 33.9974 78.5113 33.7274C78.2713 33.4574 78.0363 33.2024 77.8063 32.9624C77.5763 32.7224 77.3813 32.5224 77.2213 32.3624L78.1963 31.4774ZM78.7213 27.9824H79.0663L79.3813 27.9074L80.3863 28.5674C80.0163 29.5474 79.5313 30.4824 78.9313 31.3724C78.3313 32.2524 77.6713 33.0474 76.9513 33.7574C76.2313 34.4674 75.4963 35.0574 74.7463 35.5274C74.6963 35.3674 74.6163 35.1774 74.5063 34.9574C74.4063 34.7274 74.3013 34.5124 74.1913 34.3124C74.0913 34.1024 73.9913 33.9374 73.8913 33.8174C74.5813 33.4574 75.2413 32.9874 75.8713 32.4074C76.5013 31.8174 77.0663 31.1724 77.5663 30.4724C78.0663 29.7624 78.4513 29.0374 78.7213 28.2974V27.9824ZM97.5613 27.6674C97.4613 28.4274 97.3313 29.2374 97.1713 30.0974C97.0113 30.9574 96.7963 31.8274 96.5263 32.7074C96.2363 33.7174 95.8963 34.5874 95.5063 35.3174C95.1163 36.0474 94.6863 36.6124 94.2163 37.0124C93.7563 37.4024 93.2513 37.5974 92.7013 37.5974C92.1513 37.5974 91.6413 37.4124 91.1713 37.0424C90.7113 36.6624 90.3413 36.1424 90.0613 35.4824C89.7913 34.8224 89.6563 34.0724 89.6563 33.2324C89.6563 32.3624 89.8313 31.5424 90.1813 30.7724C90.5313 30.0024 91.0163 29.3224 91.6363 28.7324C92.2663 28.1324 92.9963 27.6624 93.8263 27.3224C94.6663 26.9824 95.5713 26.8124 96.5413 26.8124C97.4713 26.8124 98.3063 26.9624 99.0463 27.2624C99.7963 27.5624 100.436 27.9774 100.966 28.5074C101.496 29.0374 101.901 29.6574 102.181 30.3674C102.461 31.0774 102.601 31.8424 102.601 32.6624C102.601 33.7124 102.386 34.6524 101.956 35.4824C101.526 36.3124 100.886 36.9974 100.036 37.5374C99.1963 38.0774 98.1463 38.4474 96.8863 38.6474L95.7613 36.8624C96.0513 36.8324 96.3063 36.7974 96.5263 36.7574C96.7463 36.7174 96.9563 36.6724 97.1563 36.6224C97.6363 36.5024 98.0813 36.3324 98.4913 36.1124C98.9113 35.8824 99.2763 35.6024 99.5863 35.2724C99.8963 34.9324 100.136 34.5374 100.306 34.0874C100.486 33.6374 100.576 33.1424 100.576 32.6024C100.576 32.0124 100.486 31.4724 100.306 30.9824C100.126 30.4924 99.8613 30.0674 99.5113 29.7074C99.1613 29.3374 98.7363 29.0574 98.2363 28.8674C97.7363 28.6674 97.1613 28.5674 96.5113 28.5674C95.7113 28.5674 95.0063 28.7124 94.3963 29.0024C93.7863 29.2824 93.2713 29.6474 92.8513 30.0974C92.4313 30.5474 92.1113 31.0324 91.8913 31.5524C91.6813 32.0724 91.5763 32.5674 91.5763 33.0374C91.5763 33.5374 91.6363 33.9574 91.7563 34.2974C91.8763 34.6274 92.0213 34.8774 92.1913 35.0474C92.3713 35.2074 92.5613 35.2874 92.7613 35.2874C92.9713 35.2874 93.1763 35.1824 93.3763 34.9724C93.5863 34.7524 93.7913 34.4224 93.9913 33.9824C94.1913 33.5424 94.3913 32.9874 94.5913 32.3174C94.8213 31.5974 95.0163 30.8274 95.1763 30.0074C95.3363 29.1874 95.4513 28.3874 95.5213 27.6074L97.5613 27.6674Z" fill="#EDAD00"/>
<path d="M51.4663 49.9124V50.7224H55.5613V49.9124H51.4663ZM51.4663 47.9324V48.7274H55.5613V47.9324H51.4663ZM49.8313 46.6724H57.2713V51.9824H49.8313V46.6724ZM51.0913 51.3674L52.7563 51.7724C52.3963 52.7124 51.9213 53.5924 51.3313 54.4124C50.7413 55.2324 50.1013 55.9074 49.4113 56.4374C49.3313 56.3374 49.2113 56.2074 49.0513 56.0474C48.9013 55.8874 48.7463 55.7324 48.5863 55.5824C48.4263 55.4324 48.2813 55.3124 48.1513 55.2224C48.8013 54.7824 49.3813 54.2224 49.8913 53.5424C50.4113 52.8624 50.8113 52.1374 51.0913 51.3674ZM51.5113 52.8524H56.7163V54.3374H50.6263L51.5113 52.8524ZM56.2813 52.8524H57.9763C57.9763 52.8524 57.9713 52.8974 57.9613 52.9874C57.9613 53.0674 57.9563 53.1624 57.9463 53.2724C57.9463 53.3824 57.9413 53.4724 57.9313 53.5424C57.8613 54.8724 57.7813 55.9524 57.6913 56.7824C57.6013 57.6024 57.5013 58.2374 57.3913 58.6874C57.2813 59.1374 57.1513 59.4524 57.0013 59.6324C56.8313 59.8324 56.6463 59.9724 56.4463 60.0524C56.2563 60.1424 56.0363 60.2024 55.7863 60.2324C55.5763 60.2724 55.3013 60.2874 54.9613 60.2774C54.6213 60.2774 54.2613 60.2724 53.8813 60.2624C53.8713 60.0424 53.8213 59.7874 53.7313 59.4974C53.6513 59.2174 53.5463 58.9724 53.4163 58.7624C53.7563 58.7924 54.0663 58.8124 54.3463 58.8224C54.6363 58.8324 54.8563 58.8374 55.0063 58.8374C55.1263 58.8374 55.2263 58.8274 55.3063 58.8074C55.3863 58.7774 55.4663 58.7224 55.5463 58.6424C55.6663 58.5224 55.7663 58.2674 55.8463 57.8774C55.9263 57.4774 56.0013 56.8974 56.0713 56.1374C56.1513 55.3674 56.2213 54.3674 56.2813 53.1374V52.8524ZM53.6713 54.7124L54.7063 55.8224C54.3563 55.9724 53.9713 56.1124 53.5513 56.2424C53.1313 56.3624 52.7113 56.4724 52.2913 56.5724C51.8713 56.6624 51.4613 56.7474 51.0613 56.8274C51.0313 56.6774 50.9763 56.4974 50.8963 56.2874C50.8163 56.0674 50.7363 55.8824 50.6563 55.7324C51.0163 55.6324 51.3813 55.5324 51.7513 55.4324C52.1213 55.3224 52.4713 55.2074 52.8013 55.0874C53.1413 54.9574 53.4313 54.8324 53.6713 54.7124ZM49.9963 54.6674H51.5113V57.1424C51.5113 57.3224 51.5413 57.4374 51.6013 57.4874C51.6713 57.5374 51.8163 57.5624 52.0363 57.5624C52.0863 57.5624 52.1713 57.5624 52.2913 57.5624C52.4113 57.5624 52.5413 57.5624 52.6813 57.5624C52.8313 57.5624 52.9713 57.5624 53.1013 57.5624C53.2313 57.5624 53.3263 57.5624 53.3863 57.5624C53.5063 57.5624 53.5963 57.5424 53.6563 57.5024C53.7263 57.4624 53.7763 57.3824 53.8063 57.2624C53.8363 57.1424 53.8563 56.9624 53.8663 56.7224C54.0163 56.8324 54.2263 56.9424 54.4963 57.0524C54.7663 57.1524 55.0063 57.2224 55.2163 57.2624C55.1563 57.7024 55.0613 58.0474 54.9313 58.2974C54.8113 58.5374 54.6413 58.7074 54.4213 58.8074C54.2113 58.8974 53.9263 58.9424 53.5663 58.9424C53.4863 58.9424 53.3663 58.9424 53.2063 58.9424C53.0463 58.9424 52.8713 58.9424 52.6813 58.9424C52.5013 58.9424 52.3313 58.9424 52.1713 58.9424C52.0113 58.9424 51.8963 58.9424 51.8263 58.9424C51.3263 58.9424 50.9413 58.8874 50.6713 58.7774C50.4113 58.6674 50.2313 58.4874 50.1313 58.2374C50.0413 57.9774 49.9963 57.6174 49.9963 57.1574V54.6674ZM44.0113 53.8724C44.6413 53.7424 45.3913 53.5724 46.2613 53.3624C47.1413 53.1424 48.0263 52.9174 48.9163 52.6874L49.1263 54.2924C48.3163 54.5224 47.4963 54.7574 46.6663 54.9974C45.8363 55.2274 45.0763 55.4374 44.3863 55.6274L44.0113 53.8724ZM44.3113 49.0424H49.0513V50.6924H44.3113V49.0424ZM46.0663 46.2074H47.7913V58.2674C47.7913 58.7074 47.7463 59.0574 47.6563 59.3174C47.5663 59.5774 47.4013 59.7774 47.1613 59.9174C46.9113 60.0674 46.6013 60.1624 46.2313 60.2024C45.8713 60.2524 45.4313 60.2774 44.9113 60.2774C44.8913 60.0374 44.8313 59.7474 44.7313 59.4074C44.6313 59.0674 44.5213 58.7724 44.4013 58.5224C44.7013 58.5324 44.9813 58.5424 45.2413 58.5524C45.5113 58.5524 45.6963 58.5474 45.7963 58.5374C45.8963 58.5374 45.9663 58.5174 46.0063 58.4774C46.0463 58.4374 46.0663 58.3624 46.0663 58.2524V46.2074ZM69.6163 47.1374L70.9363 46.2524C71.2763 46.5624 71.6263 46.9124 71.9863 47.3024C72.3563 47.6924 72.6413 48.0324 72.8413 48.3224L71.4313 49.2974C71.3213 49.0974 71.1613 48.8724 70.9513 48.6224C70.7513 48.3624 70.5313 48.1024 70.2913 47.8424C70.0613 47.5824 69.8363 47.3474 69.6163 47.1374ZM59.3863 49.3874H73.0513V50.8724H59.3863V49.3874ZM60.0613 47.2124H66.6013V48.5924H60.0613V47.2124ZM59.7913 51.5174H66.8863V52.7924H59.7913V51.5174ZM59.5963 57.6524H66.8563V58.9574H59.5963V57.6524ZM62.4913 46.2074H64.2013V50.7674H62.4913V46.2074ZM61.3363 55.6424V56.1974H65.3563V55.6424H61.3363ZM61.3363 54.2474V54.8024H65.3563V54.2474H61.3363ZM60.0613 53.3624H66.6763V57.0824H60.0613V53.3624ZM62.6713 53.9174H63.9913V56.7674H64.1263V60.3074H62.5513V56.7674H62.6713V53.9174ZM62.5213 50.7674H64.1413V53.6924H62.5213V50.7674ZM67.3213 46.2074H69.1213C69.1013 47.4974 69.1163 48.7474 69.1663 49.9574C69.2163 51.1674 69.3013 52.2924 69.4213 53.3324C69.5413 54.3624 69.6913 55.2674 69.8713 56.0474C70.0613 56.8274 70.2763 57.4374 70.5163 57.8774C70.7663 58.3174 71.0313 58.5374 71.3113 58.5374C71.4713 58.5374 71.5913 58.3424 71.6713 57.9524C71.7513 57.5624 71.8113 56.9324 71.8513 56.0624C72.0413 56.2624 72.2713 56.4524 72.5413 56.6324C72.8113 56.8024 73.0563 56.9324 73.2763 57.0224C73.1963 57.8924 73.0713 58.5624 72.9013 59.0324C72.7413 59.5024 72.5213 59.8274 72.2413 60.0074C71.9613 60.1974 71.5963 60.2924 71.1463 60.2924C70.6263 60.2924 70.1663 60.1074 69.7663 59.7374C69.3763 59.3774 69.0413 58.8774 68.7613 58.2374C68.4813 57.5874 68.2463 56.8224 68.0563 55.9424C67.8663 55.0524 67.7163 54.0874 67.6063 53.0474C67.5063 51.9974 67.4313 50.8974 67.3813 49.7474C67.3413 48.5874 67.3213 47.4074 67.3213 46.2074ZM70.9963 51.5174L72.5863 52.0124C72.2063 53.2224 71.7313 54.3424 71.1613 55.3724C70.6013 56.4024 69.9513 57.3324 69.2113 58.1624C68.4713 58.9824 67.6363 59.7024 66.7063 60.3224C66.5863 60.0924 66.4063 59.8474 66.1663 59.5874C65.9363 59.3374 65.7163 59.1224 65.5063 58.9424C66.3663 58.4424 67.1463 57.8274 67.8463 57.0974C68.5563 56.3574 69.1713 55.5174 69.6913 54.5774C70.2213 53.6374 70.6563 52.6174 70.9963 51.5174ZM74.1313 54.0224H81.7213V55.4774H74.1313V54.0224ZM74.3113 48.7274H81.6763V50.1524H74.3113V48.7274ZM76.8463 52.9574L78.5113 53.3024C78.2613 53.8224 77.9913 54.3574 77.7013 54.9074C77.4213 55.4574 77.1413 55.9924 76.8613 56.5124C76.5813 57.0224 76.3213 57.4774 76.0813 57.8774L74.5063 57.3974C74.7463 57.0174 75.0013 56.5724 75.2713 56.0624C75.5513 55.5524 75.8263 55.0274 76.0963 54.4874C76.3763 53.9374 76.6263 53.4274 76.8463 52.9574ZM78.9613 55.0274L80.6263 55.1774C80.4863 55.9674 80.2763 56.6474 79.9963 57.2174C79.7263 57.7774 79.3613 58.2574 78.9013 58.6574C78.4513 59.0474 77.9013 59.3724 77.2513 59.6324C76.6013 59.9024 75.8263 60.1274 74.9263 60.3074C74.8763 60.0574 74.7813 59.7924 74.6413 59.5124C74.5013 59.2324 74.3563 59.0024 74.2063 58.8224C75.1963 58.6924 76.0113 58.4874 76.6513 58.2074C77.3013 57.9274 77.8113 57.5324 78.1813 57.0224C78.5513 56.5124 78.8113 55.8474 78.9613 55.0274ZM80.0263 46.3724L81.5413 46.9874C81.3013 47.3174 81.0613 47.6474 80.8213 47.9774C80.5913 48.2974 80.3813 48.5724 80.1913 48.8024L79.0363 48.2924C79.2063 48.0324 79.3863 47.7224 79.5763 47.3624C79.7663 46.9924 79.9163 46.6624 80.0263 46.3724ZM77.1763 46.1774H78.8263V53.1674H77.1763V46.1774ZM74.6863 46.9874L75.9763 46.4474C76.1763 46.7274 76.3613 47.0424 76.5313 47.3924C76.7013 47.7424 76.8213 48.0474 76.8913 48.3074L75.5113 48.9074C75.4613 48.6474 75.3563 48.3374 75.1963 47.9774C75.0363 47.6174 74.8663 47.2874 74.6863 46.9874ZM77.2213 49.4324L78.3763 50.1374C78.1363 50.5374 77.8213 50.9374 77.4313 51.3374C77.0513 51.7374 76.6413 52.1124 76.2013 52.4624C75.7713 52.8024 75.3463 53.0924 74.9263 53.3324C74.8263 53.1424 74.6863 52.9174 74.5063 52.6574C74.3363 52.3974 74.1713 52.1874 74.0113 52.0274C74.4113 51.8574 74.8163 51.6374 75.2263 51.3674C75.6363 51.0874 76.0163 50.7824 76.3663 50.4524C76.7263 50.1124 77.0113 49.7724 77.2213 49.4324ZM78.6763 49.8674C78.8163 49.9374 79.0063 50.0424 79.2463 50.1824C79.4963 50.3224 79.7613 50.4774 80.0413 50.6474C80.3313 50.8074 80.5913 50.9574 80.8213 51.0974C81.0613 51.2374 81.2313 51.3424 81.3313 51.4124L80.3863 52.6574C80.2463 52.5274 80.0663 52.3674 79.8463 52.1774C79.6263 51.9874 79.3913 51.7924 79.1413 51.5924C78.8913 51.3924 78.6513 51.2024 78.4213 51.0224C78.1913 50.8424 77.9913 50.6974 77.8213 50.5874L78.6763 49.8674ZM82.7113 48.9074H88.2313V50.5724H82.7113V48.9074ZM82.8763 46.1774L84.7063 46.4474C84.5463 47.4774 84.3413 48.4774 84.0913 49.4474C83.8413 50.4074 83.5363 51.2974 83.1763 52.1174C82.8263 52.9274 82.4163 53.6424 81.9463 54.2624C81.8563 54.1424 81.7263 54.0024 81.5563 53.8424C81.3863 53.6824 81.2063 53.5274 81.0163 53.3774C80.8263 53.2174 80.6663 53.0874 80.5363 52.9874C80.9563 52.4674 81.3163 51.8524 81.6163 51.1424C81.9263 50.4224 82.1863 49.6424 82.3963 48.8024C82.6063 47.9524 82.7663 47.0774 82.8763 46.1774ZM85.6063 49.9274L87.4513 50.1074C87.2313 51.8174 86.8913 53.3224 86.4313 54.6224C85.9813 55.9224 85.3563 57.0424 84.5563 57.9824C83.7563 58.9224 82.7263 59.7074 81.4663 60.3374C81.4063 60.1974 81.3163 60.0224 81.1963 59.8124C81.0763 59.6024 80.9463 59.3924 80.8063 59.1824C80.6663 58.9824 80.5363 58.8224 80.4163 58.7024C81.5563 58.2024 82.4763 57.5524 83.1763 56.7524C83.8863 55.9524 84.4313 54.9874 84.8113 53.8574C85.1913 52.7174 85.4563 51.4074 85.6063 49.9274ZM83.7313 50.2424C83.9413 51.5024 84.2363 52.6874 84.6163 53.7974C84.9963 54.9074 85.4963 55.8824 86.1163 56.7224C86.7363 57.5624 87.5013 58.2224 88.4113 58.7024C88.2813 58.8124 88.1363 58.9574 87.9763 59.1374C87.8163 59.3274 87.6613 59.5224 87.5113 59.7224C87.3713 59.9224 87.2563 60.1024 87.1663 60.2624C86.1563 59.6624 85.3213 58.8874 84.6613 57.9374C84.0113 56.9874 83.4863 55.8874 83.0863 54.6374C82.6863 53.3774 82.3613 52.0024 82.1113 50.5124L83.7313 50.2424ZM75.8263 57.4124L76.7863 56.1974C77.3763 56.4174 77.9613 56.6724 78.5413 56.9624C79.1313 57.2524 79.6763 57.5524 80.1763 57.8624C80.6863 58.1624 81.1113 58.4524 81.4513 58.7324L80.1913 60.0074C79.8813 59.7274 79.4913 59.4324 79.0213 59.1224C78.5513 58.8124 78.0413 58.5124 77.4913 58.2224C76.9413 57.9224 76.3863 57.6524 75.8263 57.4124Z" fill="#EDAD00"/>
<path d="M112.116 56.9424V26.5614H118.307L127.122 42.7564L130.197 49.3164H130.402C130.238 47.731 130.06 45.9954 129.869 44.1094C129.677 42.2234 129.582 40.4194 129.582 38.6974V26.5614H135.322V56.9424H129.131L120.398 40.7064L117.323 34.1874H117.118C117.254 35.8274 117.418 37.563 117.61 39.3944C117.801 41.2257 117.897 43.016 117.897 44.7654V56.9424H112.116ZM151.928 57.5164C150.014 57.5164 148.21 57.038 146.516 56.0814C144.848 55.1247 143.495 53.758 142.457 51.9814C141.418 50.1774 140.899 48.0044 140.899 45.4624C140.899 42.9204 141.418 40.761 142.457 38.9844C143.495 37.1804 144.848 35.8 146.516 34.8434C148.21 33.8867 150.014 33.4084 151.928 33.4084C153.376 33.4084 154.757 33.6817 156.069 34.2284C157.381 34.775 158.556 35.5677 159.595 36.6064C160.633 37.6177 161.453 38.875 162.055 40.3784C162.656 41.8544 162.957 43.549 162.957 45.4624C162.957 48.0044 162.437 50.1774 161.399 51.9814C160.36 53.758 158.993 55.1247 157.299 56.0814C155.631 57.038 153.841 57.5164 151.928 57.5164ZM151.928 52.5964C152.966 52.5964 153.841 52.3094 154.552 51.7354C155.29 51.134 155.836 50.3004 156.192 49.2344C156.574 48.1684 156.766 46.911 156.766 45.4624C156.766 44.0137 156.574 42.7564 156.192 41.6904C155.836 40.6244 155.29 39.8044 154.552 39.2304C153.841 38.629 152.966 38.3284 151.928 38.3284C150.889 38.3284 150.001 38.629 149.263 39.2304C148.552 39.8044 148.005 40.6244 147.623 41.6904C147.267 42.7564 147.09 44.0137 147.09 45.4624C147.09 46.911 147.267 48.1684 147.623 49.2344C148.005 50.3004 148.552 51.134 149.263 51.7354C150.001 52.3094 150.889 52.5964 151.928 52.5964ZM170.762 57.5164C169.669 57.5164 168.767 57.1337 168.056 56.3684C167.345 55.603 166.99 54.6737 166.99 53.5804C166.99 52.4324 167.345 51.4894 168.056 50.7514C168.767 50.0134 169.669 49.6444 170.762 49.6444C171.828 49.6444 172.716 50.0134 173.427 50.7514C174.138 51.4894 174.493 52.4324 174.493 53.5804C174.493 54.6737 174.138 55.603 173.427 56.3684C172.716 57.1337 171.828 57.5164 170.762 57.5164ZM180.774 56.9424V52.0224H187.334V33.6954H181.799V29.9234C183.33 29.6227 184.642 29.2674 185.735 28.8574C186.856 28.4474 187.894 27.9554 188.851 27.3814H193.32V52.0224H199.019V56.9424H180.774Z" fill="#EDAD00"/>
<path d="M94.5419 8.96698L99.2559 5.54199H93.429L91.6289 0L89.8289 5.54199H84.002L88.7159 8.96698L86.916 14.509L91.6299 11.084L96.3449 14.509L94.5419 8.96698Z" fill="#EDAD00"/>
<path d="M119.159 8.96698L123.873 5.54199H118.046L116.246 0L114.446 5.54199H108.619L113.333 8.96698L111.533 14.509L116.247 11.084L120.962 14.509L119.159 8.96698Z" fill="#EDAD00"/>
<path d="M143.776 8.96698L148.49 5.54199H142.663L140.863 0L139.063 5.54199H133.236L137.95 8.96698L136.15 14.509L140.864 11.084L145.579 14.509L143.776 8.96698Z" fill="#EDAD00"/>
</svg>
