<svg width="200" height="59" viewBox="0 0 200 59" fill="none" xmlns="http://www.w3.org/2000/svg">
<path d="M14.7972 2.72749L14.5842 2.53549C14.5202 2.47849 14.5632 2.52848 14.5412 2.52148L14.5202 2.54248L14.4772 2.58548L14.3922 2.67749L14.2212 2.85548L13.8872 3.22548C13.6672 3.47448 13.4462 3.72549 13.2402 3.98549C12.8142 4.49749 12.4162 5.03048 12.0322 5.57048C11.2686 6.65951 10.5845 7.80214 9.98517 8.98949C8.79712 11.3636 7.91347 13.8781 7.35517 16.4735C6.25905 21.6631 6.29794 27.0283 7.46917 32.2015C8.62135 37.3461 10.8099 42.2019 13.9012 46.4725C17.0036 50.7041 20.8821 54.3074 25.3302 57.0905L24.3072 58.6545C19.7803 55.6174 15.8708 51.749 12.7862 47.2545C9.72211 42.773 7.60366 37.7141 6.56017 32.3865C5.50696 27.0842 5.61613 21.6165 6.88017 16.3605C7.51338 13.7493 8.47575 11.2291 9.74417 8.86049C10.376 7.68043 11.0957 6.54957 11.8972 5.47749C12.2972 4.93749 12.7142 4.41848 13.1552 3.91348C13.3752 3.65748 13.6032 3.41348 13.8302 3.17448L14.1782 2.81248L14.3562 2.63449L14.4412 2.54948L14.4842 2.50648L14.5052 2.48549C14.5052 2.48549 14.5412 2.50649 14.4912 2.44249L14.2992 2.22949L14.7992 2.71948L14.7972 2.72749Z" fill="#F4BC40"/>
<path d="M13.8164 0.944567C13.3722 1.37901 13.0522 1.92439 12.8897 2.52417C12.7272 3.12395 12.7282 3.75629 12.8924 4.35558C13.4678 4.42844 14.0522 4.37188 14.603 4.19003C15.1537 4.00819 15.6569 3.70564 16.0758 3.30449C16.4947 2.90334 16.8187 2.41371 17.0241 1.87134C17.2296 1.32897 17.3114 0.747574 17.2634 0.169573C16.6711 -0.0225857 16.038 -0.0520317 15.4304 0.0843066C14.8227 0.220645 14.2629 0.517751 13.8094 0.944567H13.8164Z" fill="#F4BC40"/>
<path d="M10.2631 11.1997C9.73248 11.3619 9.25091 11.6543 8.86227 12.0503C8.47363 12.4462 8.19029 12.9332 8.03809 13.4667C9.13865 13.8751 10.3466 13.8903 11.4571 13.5097C11.9334 13.3684 12.3743 13.1274 12.7505 12.8028C13.1266 12.4781 13.4295 12.0773 13.6391 11.6267C13.1327 11.3354 12.5732 11.1483 11.9934 11.0763C11.4136 11.0044 10.8253 11.0491 10.2631 11.2077V11.1997Z" fill="#F4BC40"/>
<path d="M7.80781 10.1128C8.25642 11.1625 8.28185 12.3449 7.87881 13.4128C7.28547 13.2617 6.73505 12.9756 6.27049 12.5768C5.80592 12.1779 5.43977 11.6772 5.2006 11.1136C4.96142 10.5499 4.85568 9.93866 4.89162 9.32744C4.92756 8.71621 5.10422 8.12156 5.40781 7.58984C6.50532 8.08695 7.36614 8.99187 7.80781 10.1128Z" fill="#F4BC40"/>
<path d="M12.5877 6.5235C12.143 6.57061 11.7169 6.72702 11.3474 6.9788C10.9778 7.23058 10.6763 7.56991 10.4697 7.9665C11.2761 8.46485 12.2302 8.66839 13.1697 8.54249C13.5735 8.50348 13.9641 8.37788 14.3149 8.17425C14.6658 7.97062 14.9686 7.69375 15.2027 7.3625C14.8439 7.05641 14.4282 6.82412 13.9795 6.67895C13.5308 6.53378 13.0578 6.47857 12.5877 6.51649V6.5235Z" fill="#F4BC40"/>
<path d="M10.8103 5.28676C11.0023 6.18447 10.8392 7.12168 10.3553 7.90176C9.92372 7.68671 9.54435 7.38002 9.24364 7.00314C8.94293 6.62626 8.72813 6.18826 8.61425 5.71976C8.50724 5.23303 8.51306 4.72828 8.63128 4.24416C8.74949 3.76003 8.97696 3.30938 9.29625 2.92676C10.0882 3.48825 10.633 4.3336 10.8173 5.28676H10.8103Z" fill="#F4BC40"/>
<path d="M8.5554 16.8291C8.01008 17.1168 7.54592 17.537 7.20567 18.0512C6.86542 18.5653 6.66002 19.1568 6.6084 19.7711C7.89496 19.9841 9.21558 19.7456 10.3464 19.0961C10.8373 18.8407 11.2681 18.4836 11.61 18.0485C11.952 17.6135 12.1972 17.1105 12.3294 16.5731C11.7151 16.3619 11.0647 16.2758 10.4165 16.3198C9.76838 16.3637 9.13559 16.5369 8.5554 16.8291Z" fill="#F4BC40"/>
<path d="M5.64874 16.161C6.36254 17.209 6.64049 18.4937 6.42374 19.743C5.74546 19.702 5.08575 19.5053 4.49583 19.168C3.90591 18.8308 3.40166 18.3621 3.02221 17.7984C2.64276 17.2347 2.39833 16.5911 2.30789 15.9176C2.21746 15.2441 2.28345 14.5589 2.50074 13.915C3.80045 14.2297 4.9283 15.0344 5.64874 16.161Z" fill="#F4BC40"/>
<path d="M7.93248 23.1616C7.38448 23.5984 6.95577 24.1667 6.68618 24.8135C6.41659 25.4604 6.31488 26.1649 6.39048 26.8616C7.87192 26.8176 9.29382 26.2686 10.4205 25.3056C10.912 24.92 11.3158 24.4341 11.605 23.8803C11.8941 23.3264 12.062 22.7174 12.0975 22.0936C11.3679 21.9879 10.6245 22.0283 9.91071 22.2125C9.19687 22.3967 8.5268 22.721 7.93948 23.1666L7.93248 23.1616Z" fill="#F4BC40"/>
<path d="M4.54137 23.0336C5.55627 24.0573 6.14123 25.4304 6.17637 26.8716C5.4079 26.9744 4.62604 26.8977 3.89222 26.6474C3.1584 26.3971 2.49261 25.9801 1.94714 25.4291C1.40167 24.8781 0.991378 24.2082 0.748503 23.4718C0.505629 22.7355 0.436782 21.9529 0.547372 21.1855C2.06593 21.2604 3.49578 21.9232 4.53437 23.0336H4.54137Z" fill="#F4BC40"/>
<path d="M8.54269 30.0765C8.03255 30.6721 7.68318 31.3883 7.52776 32.157C7.37234 32.9257 7.41603 33.7214 7.65469 34.4685C9.26664 34.0854 10.7032 33.1718 11.7337 31.8745C12.1889 31.3512 12.5275 30.7372 12.7272 30.0731C12.9268 29.4089 12.9829 28.7099 12.8917 28.0225C12.066 28.0593 11.2559 28.2605 10.5089 28.6144C9.76195 28.9683 9.09315 29.4678 8.54169 30.0835L8.54269 30.0765Z" fill="#F4BC40"/>
<path d="M4.79 30.6664C6.12495 31.5766 7.06681 32.9574 7.427 34.5324C6.6232 34.805 5.76845 34.8935 4.92587 34.7913C4.08329 34.6892 3.27442 34.3991 2.559 33.9424C1.81827 33.4434 1.20222 32.7808 0.758496 32.0057C0.314768 31.2306 0.0552472 30.3638 0 29.4724C1.68863 29.2391 3.40215 29.6668 4.783 30.6664H4.79Z" fill="#F4BC40"/>
<path d="M10.6475 37.2856C10.2272 38.0437 10.0102 38.8978 10.0178 39.7647C10.0253 40.6316 10.2571 41.4818 10.6905 42.2326C12.3402 41.4347 13.6813 40.1157 14.5065 38.4796C14.8815 37.8206 15.1116 37.0892 15.1815 36.3343C15.2513 35.5793 15.1593 34.8181 14.9115 34.1016C14.0243 34.321 13.19 34.7158 12.4577 35.2626C11.7255 35.8094 11.11 36.4973 10.6475 37.2856Z" fill="#F4BC40"/>
<path d="M6.70909 38.768C8.35911 39.4617 9.69535 40.7395 10.4621 42.3569C9.65432 42.841 8.74745 43.1359 7.80948 43.2195C6.87151 43.3032 5.92677 43.1734 5.04609 42.8399C4.12245 42.4595 3.29905 41.871 2.63996 41.1203C1.98087 40.3697 1.50388 39.477 1.24609 38.5119C3.03177 37.8875 4.9896 37.9767 6.71109 38.7609L6.70909 38.768Z" fill="#F4BC40"/>
<path d="M14.4631 44.3969C14.19 45.3067 14.1599 46.2721 14.3756 47.1972C14.5914 48.1223 15.0457 48.9748 15.6931 49.6699C17.2571 48.4135 18.3697 46.6823 18.8631 44.7379C19.1085 43.9536 19.1846 43.1262 19.0865 42.3103C18.9884 41.4944 18.7184 40.7087 18.2941 40.0049C17.3943 40.4447 16.5913 41.0597 15.9322 41.8138C15.2732 42.568 14.7713 43.4462 14.4561 44.3969H14.4631Z" fill="#F4BC40"/>
<path d="M10.589 46.9128C12.5229 47.2696 14.261 48.3178 15.479 49.8618C14.7345 50.5801 13.8358 51.1188 12.8514 51.4366C11.8669 51.7545 10.8229 51.8432 9.79897 51.6958C8.70932 51.506 7.67865 51.0657 6.78823 50.4095C5.89782 49.7534 5.17199 48.8994 4.66797 47.9148C6.43972 46.8337 8.56012 46.4773 10.588 46.9198L10.589 46.9128Z" fill="#F4BC40"/>
<path d="M184.523 2.72749L184.736 2.53549C184.8 2.47849 184.757 2.52848 184.779 2.52148L184.8 2.54248L184.843 2.58548L184.928 2.67749L185.099 2.85548L185.433 3.22548C185.653 3.47448 185.874 3.72549 186.08 3.98549C186.506 4.49749 186.904 5.03048 187.288 5.57048C188.054 6.65785 188.739 7.80067 189.335 8.98949C190.523 11.3636 191.407 13.8781 191.965 16.4735C193.061 21.6631 193.022 27.0283 191.851 32.2015C190.699 37.3461 188.511 42.2019 185.419 46.4725C182.317 50.7041 178.438 54.3074 173.99 57.0905L175.013 58.6545C179.54 55.6174 183.45 51.749 186.534 47.2545C189.598 42.773 191.717 37.7141 192.76 32.3865C193.813 27.0842 193.704 21.6165 192.44 16.3605C191.807 13.7493 190.845 11.2291 189.576 8.86049C188.944 7.68043 188.225 6.54957 187.423 5.47749C187.023 4.93749 186.606 4.41848 186.165 3.91348C185.945 3.65748 185.724 3.41348 185.49 3.17448L185.142 2.81248L184.964 2.63449L184.879 2.54948L184.836 2.50648L184.815 2.48549C184.815 2.48549 184.779 2.50649 184.829 2.44249L185.021 2.22949L184.521 2.71948L184.523 2.72749Z" fill="#F4BC40"/>
<path d="M185.511 0.944567C185.955 1.37901 186.275 1.92439 186.438 2.52417C186.6 3.12395 186.599 3.75629 186.435 4.35558C185.86 4.42844 185.275 4.37188 184.725 4.19003C184.174 4.00819 183.671 3.70564 183.252 3.30449C182.833 2.90334 182.509 2.41371 182.303 1.87134C182.098 1.32897 182.016 0.747574 182.064 0.169573C182.656 -0.0225857 183.29 -0.0520317 183.897 0.0843066C184.505 0.220645 185.065 0.517751 185.518 0.944567H185.511Z" fill="#F4BC40"/>
<path d="M189.064 11.1997C189.595 11.3619 190.077 11.6543 190.465 12.0503C190.854 12.4462 191.137 12.9332 191.289 13.4667C190.189 13.8751 188.981 13.8903 187.87 13.5097C187.394 13.3684 186.953 13.1274 186.577 12.8028C186.201 12.4781 185.898 12.0773 185.688 11.6267C186.195 11.3354 186.754 11.1483 187.334 11.0763C187.914 11.0044 188.502 11.0491 189.064 11.2077V11.1997Z" fill="#F4BC40"/>
<path d="M191.516 10.1128C191.067 11.1624 191.042 12.3448 191.445 13.4128C192.038 13.261 192.587 12.9745 193.051 12.5755C193.515 12.1766 193.88 11.676 194.119 11.1127C194.357 10.5494 194.463 9.93862 194.427 9.32793C194.391 8.71724 194.214 8.12311 193.911 7.5918C192.816 8.08948 191.957 8.99349 191.516 10.1128Z" fill="#F4BC40"/>
<path d="M186.74 6.5235C187.185 6.57061 187.611 6.72702 187.98 6.9788C188.35 7.23058 188.651 7.56991 188.858 7.9665C188.052 8.46485 187.098 8.66839 186.158 8.54249C185.754 8.50348 185.364 8.37788 185.013 8.17425C184.662 7.97062 184.359 7.69375 184.125 7.3625C184.484 7.05641 184.899 6.82412 185.348 6.67895C185.797 6.53378 186.27 6.47857 186.74 6.51649V6.5235Z" fill="#F4BC40"/>
<path d="M188.517 5.28676C188.322 6.1844 188.485 7.12294 188.972 7.90176C189.415 7.68873 189.802 7.37736 190.106 6.99147C190.409 6.60558 190.621 6.1554 190.724 5.67532C190.826 5.19525 190.818 4.69802 190.699 4.22163C190.581 3.74525 190.354 3.30233 190.038 2.92676C189.246 3.48825 188.701 4.3336 188.517 5.28676Z" fill="#F4BC40"/>
<path d="M190.763 16.8291C191.309 17.1168 191.773 17.537 192.113 18.0512C192.453 18.5653 192.659 19.1568 192.71 19.7711C191.424 19.9841 190.103 19.7456 188.972 19.0961C188.481 18.8407 188.051 18.4836 187.709 18.0485C187.367 17.6135 187.121 17.1105 186.989 16.5731C187.604 16.3619 188.254 16.2758 188.902 16.3198C189.55 16.3637 190.183 16.5369 190.763 16.8291Z" fill="#F4BC40"/>
<path d="M193.67 16.161C192.956 17.209 192.678 18.4937 192.895 19.743C193.574 19.7031 194.235 19.507 194.825 19.1702C195.416 18.8334 195.921 18.3648 196.301 17.801C196.682 17.2371 196.927 16.5932 197.018 15.9192C197.108 15.2452 197.043 14.5594 196.825 13.915C195.525 14.2297 194.398 15.0344 193.677 16.161H193.67Z" fill="#F4BC40"/>
<path d="M191.389 23.1616C191.938 23.5974 192.367 24.1655 192.637 24.8126C192.907 25.4598 193.008 26.1648 192.931 26.8616C191.449 26.8176 190.027 26.2686 188.901 25.3056C188.409 24.92 188.005 24.4341 187.716 23.8803C187.427 23.3264 187.259 22.7174 187.224 22.0936C187.953 21.9879 188.697 22.0283 189.41 22.2125C190.124 22.3967 190.794 22.721 191.382 23.1666L191.389 23.1616Z" fill="#F4BC40"/>
<path d="M194.779 23.0336C193.764 24.0573 193.179 25.4304 193.144 26.8716C193.912 26.9744 194.694 26.8977 195.428 26.6474C196.162 26.3971 196.827 25.9801 197.373 25.4291C197.918 24.8781 198.329 24.2082 198.571 23.4718C198.814 22.7355 198.883 21.9529 198.773 21.1855C197.252 21.2617 195.821 21.9241 194.779 23.0336Z" fill="#F4BC40"/>
<path d="M190.777 30.0765C191.287 30.6721 191.637 31.3883 191.792 32.157C191.948 32.9257 191.904 33.7214 191.665 34.4685C190.053 34.0854 188.617 33.1718 187.586 31.8745C187.131 31.3512 186.792 30.7372 186.593 30.0731C186.393 29.4089 186.337 28.7099 186.428 28.0225C187.254 28.0593 188.064 28.2605 188.811 28.6144C189.558 28.9683 190.227 29.4678 190.778 30.0835L190.777 30.0765Z" fill="#F4BC40"/>
<path d="M194.531 30.6664C193.196 31.5766 192.254 32.9574 191.894 34.5324C192.697 34.805 193.552 34.8935 194.395 34.7913C195.237 34.6892 196.046 34.3991 196.762 33.9424C197.501 33.4423 198.116 32.7794 198.56 32.0045C199.004 31.2296 199.264 30.3635 199.321 29.4724C197.632 29.2391 195.918 29.6668 194.538 30.6664H194.531Z" fill="#F4BC40"/>
<path d="M188.671 37.2856C189.091 38.0437 189.308 38.8978 189.301 39.7647C189.293 40.6316 189.061 41.4818 188.628 42.2326C186.978 41.4347 185.637 40.1157 184.812 38.4796C184.437 37.8206 184.207 37.0892 184.137 36.3343C184.067 35.5793 184.159 34.8181 184.407 34.1016C185.294 34.321 186.128 34.7158 186.861 35.2626C187.593 35.8094 188.208 36.4973 188.671 37.2856Z" fill="#F4BC40"/>
<path d="M192.618 38.7671C190.968 39.4609 189.632 40.7387 188.865 42.3561C189.673 42.8401 190.58 43.135 191.518 43.2187C192.456 43.3023 193.401 43.1726 194.281 42.8391C195.205 42.4586 196.028 41.8702 196.687 41.1195C197.346 40.3689 197.823 39.4762 198.081 38.5111C196.296 37.8865 194.338 37.9757 192.616 38.7601L192.618 38.7671Z" fill="#F4BC40"/>
<path d="M184.865 44.3969C185.138 45.3067 185.168 46.2721 184.952 47.1972C184.736 48.1223 184.282 48.9748 183.635 49.6699C182.071 48.4135 180.958 46.6823 180.465 44.7379C180.218 43.9538 180.14 43.1262 180.239 42.31C180.337 41.4939 180.608 40.708 181.034 40.0049C181.933 40.4447 182.736 41.0597 183.395 41.8138C184.055 42.568 184.556 43.4462 184.872 44.3969H184.865Z" fill="#F4BC40"/>
<path d="M188.731 46.9128C186.797 47.2696 185.059 48.3178 183.841 49.8618C184.585 50.58 185.484 51.1186 186.468 51.4364C187.452 51.7543 188.496 51.843 189.52 51.6958C190.609 51.506 191.64 51.0657 192.531 50.4095C193.421 49.7534 194.147 48.8994 194.651 47.9148C192.879 46.8337 190.759 46.4773 188.731 46.9198V46.9128Z" fill="#F4BC40"/>
<path d="M32.0553 20.5476H33.5113V27.9056H32.0553V20.5476ZM34.3953 19.7026H35.8903V29.8426C35.8903 30.2586 35.8426 30.5836 35.7473 30.8176C35.652 31.0516 35.4873 31.2336 35.2533 31.3636C35.0106 31.4849 34.6986 31.5629 34.3173 31.5976C33.9446 31.6409 33.507 31.6626 33.0043 31.6626C32.9696 31.4459 32.9046 31.1859 32.8093 30.8826C32.7226 30.5792 32.6316 30.3149 32.5363 30.0896C32.8743 30.0982 33.1906 30.1069 33.4853 30.1156C33.7886 30.1156 33.9966 30.1156 34.1093 30.1156C34.2133 30.1069 34.287 30.0852 34.3303 30.0506C34.3736 30.0159 34.3953 29.9422 34.3953 29.8296V19.7026ZM27.1413 19.5596H28.6233V31.6756H27.1413V19.5596ZM29.7673 25.9426H31.1713V29.2706C31.1713 29.5739 31.141 29.8209 31.0803 30.0116C31.0196 30.2022 30.894 30.3582 30.7033 30.4796C30.5126 30.5836 30.2916 30.6486 30.0403 30.6746C29.789 30.7006 29.503 30.7092 29.1823 30.7006C29.165 30.5099 29.1173 30.2889 29.0393 30.0376C28.9613 29.7862 28.879 29.5696 28.7923 29.3876C28.9743 29.3962 29.139 29.4006 29.2863 29.4006C29.4423 29.4006 29.5506 29.4006 29.6113 29.4006C29.7153 29.4006 29.7673 29.3486 29.7673 29.2446V25.9426ZM24.6843 25.9426H30.3133V27.3336H26.0753V30.6356H24.6843V25.9426ZM24.1773 23.5896H31.4703V25.0066H24.1773V23.5896ZM25.5293 21.2106H30.9633V22.6146H25.2433L25.5293 21.2106ZM25.1653 19.7156L26.6083 20.0146C26.461 20.6906 26.2703 21.3579 26.0363 22.0166C25.811 22.6752 25.5726 23.2342 25.3213 23.6936C25.226 23.6242 25.0916 23.5549 24.9183 23.4856C24.7536 23.4076 24.5846 23.3382 24.4113 23.2776C24.2466 23.2082 24.0993 23.1519 23.9693 23.1086C24.238 22.6926 24.4763 22.1769 24.6843 21.5616C24.8923 20.9462 25.0526 20.3309 25.1653 19.7156ZM43.1053 21.6006H49.3323V23.0826H42.3643L43.1053 21.6006ZM44.8083 24.4476H49.0073V25.8776H44.8083V24.4476ZM44.7953 27.3336H49.1763V28.7896H44.7953V27.3336ZM44.0153 22.0946H45.6273V31.6756H44.0153V22.0946ZM43.4043 19.5986L44.8993 19.9886C44.6566 20.6906 44.3706 21.3882 44.0413 22.0816C43.7206 22.7749 43.3696 23.4249 42.9883 24.0316C42.607 24.6296 42.217 25.1582 41.8183 25.6176C41.7403 25.5136 41.6276 25.3922 41.4803 25.2536C41.333 25.1149 41.1813 24.9806 41.0253 24.8506C40.878 24.7119 40.7436 24.6036 40.6223 24.5256C41.0123 24.1356 41.3763 23.6762 41.7143 23.1476C42.061 22.6189 42.3773 22.0512 42.6633 21.4446C42.958 20.8292 43.205 20.2139 43.4043 19.5986ZM39.9593 19.5206L41.4673 20.0016C41.19 20.7382 40.8606 21.4792 40.4793 22.2246C40.098 22.9699 39.682 23.6762 39.2313 24.3436C38.7806 25.0022 38.317 25.5786 37.8403 26.0726C37.7883 25.9426 37.7103 25.7736 37.6063 25.5656C37.511 25.3576 37.407 25.1452 37.2943 24.9286C37.1816 24.7119 37.0776 24.5386 36.9823 24.4086C37.381 24.0099 37.7623 23.5506 38.1263 23.0306C38.499 22.5106 38.8413 21.9516 39.1533 21.3536C39.474 20.7556 39.7426 20.1446 39.9593 19.5206ZM38.6463 23.1216L40.2193 21.5486V21.5616V31.6626H38.6463V23.1216ZM50.9053 29.7646C51.6766 29.7386 52.5693 29.7126 53.5833 29.6866C54.606 29.6519 55.6763 29.6129 56.7943 29.5696C57.921 29.5262 59.0303 29.4829 60.1223 29.4396L60.0703 30.8696C59.013 30.9302 57.9383 30.9822 56.8463 31.0256C55.763 31.0776 54.7316 31.1252 53.7523 31.1686C52.773 31.2206 51.889 31.2639 51.1003 31.2986L50.9053 29.7646ZM50.8403 25.9036H61.6433V27.3596H50.8403V25.9036ZM53.1543 23.3946H59.2513V24.8246H53.1543V23.3946ZM54.0123 26.8526L55.7933 27.3336C55.594 27.7409 55.3816 28.1569 55.1563 28.5816C54.9396 28.9976 54.723 29.3962 54.5063 29.7776C54.2983 30.1589 54.099 30.4969 53.9083 30.7916L52.5433 30.3366C52.7166 30.0159 52.8986 29.6562 53.0893 29.2576C53.28 28.8502 53.4533 28.4386 53.6093 28.0226C53.774 27.5979 53.9083 27.2079 54.0123 26.8526ZM57.2493 28.1916L58.6143 27.4636C59.0043 27.8016 59.39 28.1656 59.7713 28.5556C60.1526 28.9456 60.5036 29.3399 60.8243 29.7386C61.145 30.1286 61.405 30.4882 61.6043 30.8176L60.1483 31.7016C59.975 31.3722 59.728 30.9996 59.4073 30.5836C59.0953 30.1762 58.7486 29.7602 58.3673 29.3356C57.9946 28.9109 57.622 28.5296 57.2493 28.1916ZM56.1833 20.9896C55.8366 21.4836 55.3903 21.9906 54.8443 22.5106C54.2983 23.0219 53.6916 23.5072 53.0243 23.9666C52.357 24.4259 51.6636 24.8289 50.9443 25.1756C50.8923 25.0456 50.81 24.9026 50.6973 24.7466C50.5933 24.5819 50.4806 24.4259 50.3593 24.2786C50.2466 24.1226 50.134 23.9882 50.0213 23.8756C50.7666 23.5462 51.4816 23.1389 52.1663 22.6536C52.851 22.1596 53.462 21.6396 53.9993 21.0936C54.5453 20.5389 54.9786 20.0059 55.2993 19.4946H56.9373C57.284 19.9712 57.6696 20.4219 58.0943 20.8466C58.519 21.2712 58.9696 21.6612 59.4463 22.0166C59.923 22.3632 60.4126 22.6752 60.9153 22.9526C61.4266 23.2212 61.9423 23.4509 62.4623 23.6416C62.2716 23.8322 62.0896 24.0576 61.9163 24.3176C61.743 24.5776 61.587 24.8246 61.4483 25.0586C60.7983 24.7552 60.1396 24.3826 59.4723 23.9406C58.805 23.4986 58.181 23.0219 57.6003 22.5106C57.0283 21.9992 56.556 21.4922 56.1833 20.9896ZM68.0263 29.7776H75.4233V31.3116H68.0263V29.7776ZM68.5593 23.4986H75.1113V25.0066H68.5593V23.4986ZM71.0293 19.5986H72.6413V30.5186H71.0293V19.5986ZM63.3593 21.8866H67.6103V23.2906H63.3593V21.8866ZM65.2183 26.3196L66.7653 24.4736V31.6886H65.2183V26.3196ZM65.2183 19.4816H66.7653V22.5366H65.2183V19.4816ZM66.5963 24.9156C66.7176 24.9936 66.8823 25.1236 67.0903 25.3056C67.307 25.4789 67.5366 25.6739 67.7793 25.8906C68.022 26.0986 68.243 26.2936 68.4423 26.4756C68.6416 26.6489 68.7846 26.7746 68.8713 26.8526L67.9353 28.1266C67.8053 27.9619 67.645 27.7712 67.4543 27.5546C67.2723 27.3292 67.0773 27.0996 66.8693 26.8656C66.6613 26.6316 66.4576 26.4106 66.2583 26.2026C66.059 25.9946 65.89 25.8212 65.7513 25.6826L66.5963 24.9156ZM67.0513 21.8866H67.3503L67.6233 21.8216L68.4943 22.3936C68.1736 23.2429 67.7533 24.0532 67.2333 24.8246C66.7133 25.5872 66.1413 26.2762 65.5173 26.8916C64.8933 27.5069 64.2563 28.0182 63.6063 28.4256C63.563 28.2869 63.4936 28.1222 63.3983 27.9316C63.3116 27.7322 63.2206 27.5459 63.1253 27.3726C63.0386 27.1906 62.952 27.0476 62.8653 26.9436C63.4633 26.6316 64.0353 26.2242 64.5813 25.7216C65.1273 25.2102 65.617 24.6512 66.0503 24.0446C66.4836 23.4292 66.8173 22.8009 67.0513 22.1596V21.8866ZM83.3793 21.6136C83.2926 22.2722 83.18 22.9742 83.0413 23.7196C82.9026 24.4649 82.7163 25.2189 82.4823 25.9816C82.231 26.8569 81.9363 27.6109 81.5983 28.2436C81.2603 28.8762 80.8876 29.3659 80.4803 29.7126C80.0816 30.0506 79.644 30.2196 79.1673 30.2196C78.6906 30.2196 78.2486 30.0592 77.8413 29.7386C77.4426 29.4092 77.122 28.9586 76.8793 28.3866C76.6453 27.8146 76.5283 27.1646 76.5283 26.4366C76.5283 25.6826 76.68 24.9719 76.9833 24.3046C77.2866 23.6372 77.707 23.0479 78.2443 22.5366C78.7903 22.0166 79.423 21.6092 80.1423 21.3146C80.8703 21.0199 81.6546 20.8726 82.4953 20.8726C83.3013 20.8726 84.025 21.0026 84.6663 21.2626C85.3163 21.5226 85.871 21.8822 86.3303 22.3416C86.7896 22.8009 87.1406 23.3382 87.3833 23.9536C87.626 24.5689 87.7473 25.2319 87.7473 25.9426C87.7473 26.8526 87.561 27.6672 87.1883 28.3866C86.8156 29.1059 86.261 29.6996 85.5243 30.1676C84.7963 30.6356 83.8863 30.9562 82.7943 31.1296L81.8193 29.5826C82.0706 29.5566 82.2916 29.5262 82.4823 29.4916C82.673 29.4569 82.855 29.4179 83.0283 29.3746C83.4443 29.2706 83.83 29.1232 84.1853 28.9326C84.5493 28.7332 84.8656 28.4906 85.1343 28.2046C85.403 27.9099 85.611 27.5676 85.7583 27.1776C85.9143 26.7876 85.9923 26.3586 85.9923 25.8906C85.9923 25.3792 85.9143 24.9112 85.7583 24.4866C85.6023 24.0619 85.3726 23.6936 85.0693 23.3816C84.766 23.0609 84.3976 22.8182 83.9643 22.6536C83.531 22.4802 83.0326 22.3936 82.4693 22.3936C81.776 22.3936 81.165 22.5192 80.6363 22.7706C80.1076 23.0132 79.6613 23.3296 79.2973 23.7196C78.9333 24.1096 78.656 24.5299 78.4653 24.9806C78.2833 25.4312 78.1923 25.8602 78.1923 26.2676C78.1923 26.7009 78.2443 27.0649 78.3483 27.3596C78.4523 27.6456 78.578 27.8622 78.7253 28.0096C78.8813 28.1482 79.046 28.2176 79.2193 28.2176C79.4013 28.2176 79.579 28.1266 79.7523 27.9446C79.9343 27.7539 80.112 27.4679 80.2853 27.0866C80.4586 26.7052 80.632 26.2242 80.8053 25.6436C81.0046 25.0196 81.1736 24.3522 81.3123 23.6416C81.451 22.9309 81.5506 22.2376 81.6113 21.5616L83.3793 21.6136Z" fill="#F4BC40"/>
<path d="M43.4303 40.6926V41.3946H46.9793V40.6926H43.4303ZM43.4303 38.9766V39.6656H46.9793V38.9766H43.4303ZM42.0133 37.8846H48.4613V42.4866H42.0133V37.8846ZM43.1053 41.9536L44.5483 42.3046C44.2363 43.1192 43.8246 43.8819 43.3133 44.5926C42.802 45.3032 42.2473 45.8882 41.6493 46.3476C41.58 46.2609 41.476 46.1482 41.3373 46.0096C41.2073 45.8709 41.073 45.7366 40.9343 45.6066C40.7956 45.4766 40.67 45.3726 40.5573 45.2946C41.1206 44.9132 41.6233 44.4279 42.0653 43.8386C42.516 43.2492 42.8626 42.6209 43.1053 41.9536ZM43.4693 43.2406H47.9803V44.5276H42.7023L43.4693 43.2406ZM47.6033 43.2406H49.0723C49.0723 43.2406 49.068 43.2796 49.0593 43.3576C49.0593 43.4269 49.055 43.5092 49.0463 43.6046C49.0463 43.6999 49.042 43.7779 49.0333 43.8386C48.9726 44.9912 48.9033 45.9272 48.8253 46.6466C48.7473 47.3572 48.6606 47.9076 48.5653 48.2976C48.47 48.6876 48.3573 48.9606 48.2273 49.1166C48.08 49.2899 47.9196 49.4112 47.7463 49.4806C47.5816 49.5586 47.391 49.6106 47.1743 49.6366C46.9923 49.6712 46.754 49.6842 46.4593 49.6756C46.1646 49.6756 45.8526 49.6712 45.5233 49.6626C45.5146 49.4719 45.4713 49.2509 45.3933 48.9996C45.324 48.7569 45.233 48.5446 45.1203 48.3626C45.415 48.3886 45.6836 48.4059 45.9263 48.4146C46.1776 48.4232 46.3683 48.4276 46.4983 48.4276C46.6023 48.4276 46.689 48.4189 46.7583 48.4016C46.8276 48.3756 46.897 48.3279 46.9663 48.2586C47.0703 48.1546 47.157 47.9336 47.2263 47.5956C47.2956 47.2489 47.3606 46.7462 47.4213 46.0876C47.4906 45.4202 47.5513 44.5536 47.6033 43.4876V43.2406ZM45.3413 44.8526L46.2383 45.8146C45.935 45.9446 45.6013 46.0659 45.2373 46.1786C44.8733 46.2826 44.5093 46.3779 44.1453 46.4646C43.7813 46.5426 43.426 46.6162 43.0793 46.6856C43.0533 46.5556 43.0056 46.3996 42.9363 46.2176C42.867 46.0269 42.7976 45.8666 42.7283 45.7366C43.0403 45.6499 43.3566 45.5632 43.6773 45.4766C43.998 45.3812 44.3013 45.2816 44.5873 45.1776C44.882 45.0649 45.1333 44.9566 45.3413 44.8526ZM42.1563 44.8136H43.4693V46.9586C43.4693 47.1146 43.4953 47.2142 43.5473 47.2576C43.608 47.3009 43.7336 47.3226 43.9243 47.3226C43.9676 47.3226 44.0413 47.3226 44.1453 47.3226C44.2493 47.3226 44.362 47.3226 44.4833 47.3226C44.6133 47.3226 44.7346 47.3226 44.8473 47.3226C44.96 47.3226 45.0423 47.3226 45.0943 47.3226C45.1983 47.3226 45.2763 47.3052 45.3283 47.2706C45.389 47.2359 45.4323 47.1666 45.4583 47.0626C45.4843 46.9586 45.5016 46.8026 45.5103 46.5946C45.6403 46.6899 45.8223 46.7852 46.0563 46.8806C46.2903 46.9672 46.4983 47.0279 46.6803 47.0626C46.6283 47.4439 46.546 47.7429 46.4333 47.9596C46.3293 48.1676 46.182 48.3149 45.9913 48.4016C45.8093 48.4796 45.5623 48.5186 45.2503 48.5186C45.181 48.5186 45.077 48.5186 44.9383 48.5186C44.7996 48.5186 44.648 48.5186 44.4833 48.5186C44.3273 48.5186 44.18 48.5186 44.0413 48.5186C43.9026 48.5186 43.803 48.5186 43.7423 48.5186C43.309 48.5186 42.9753 48.4709 42.7413 48.3756C42.516 48.2802 42.36 48.1242 42.2733 47.9076C42.1953 47.6822 42.1563 47.3702 42.1563 46.9716V44.8136ZM36.9693 44.1246C37.5153 44.0119 38.1653 43.8646 38.9193 43.6826C39.682 43.4919 40.449 43.2969 41.2203 43.0976L41.4023 44.4886C40.7003 44.6879 39.9896 44.8916 39.2703 45.0996C38.551 45.2989 37.8923 45.4809 37.2943 45.6456L36.9693 44.1246ZM37.2293 39.9386H41.3373V41.3686H37.2293V39.9386ZM38.7503 37.4816H40.2453V47.9336C40.2453 48.3149 40.2063 48.6182 40.1283 48.8436C40.0503 49.0689 39.9073 49.2422 39.6993 49.3636C39.4826 49.4936 39.214 49.5759 38.8933 49.6106C38.5813 49.6539 38.2 49.6756 37.7493 49.6756C37.732 49.4676 37.68 49.2162 37.5933 48.9216C37.5066 48.6269 37.4113 48.3712 37.3073 48.1546C37.5673 48.1632 37.81 48.1719 38.0353 48.1806C38.2693 48.1806 38.4296 48.1762 38.5163 48.1676C38.603 48.1676 38.6636 48.1502 38.6983 48.1156C38.733 48.0809 38.7503 48.0159 38.7503 47.9206V37.4816ZM59.1603 38.2876L60.3043 37.5206C60.599 37.7892 60.9023 38.0926 61.2143 38.4306C61.535 38.7686 61.782 39.0632 61.9553 39.3146L60.7333 40.1596C60.638 39.9862 60.4993 39.7912 60.3173 39.5746C60.144 39.3492 59.9533 39.1239 59.7453 38.8986C59.546 38.6732 59.351 38.4696 59.1603 38.2876ZM50.2943 40.2376H62.1373V41.5246H50.2943V40.2376ZM50.8793 38.3526H56.5473V39.5486H50.8793V38.3526ZM50.6453 42.0836H56.7943V43.1886H50.6453V42.0836ZM50.4763 47.4006H56.7683V48.5316H50.4763V47.4006ZM52.9853 37.4816H54.4673V41.4336H52.9853V37.4816ZM51.9843 45.6586V46.1396H55.4683V45.6586H51.9843ZM51.9843 44.4496V44.9306H55.4683V44.4496H51.9843ZM50.8793 43.6826H56.6123V46.9066H50.8793V43.6826ZM53.1413 44.1636H54.2853V46.6336H54.4023V49.7016H53.0373V46.6336H53.1413V44.1636ZM53.0113 41.4336H54.4153V43.9686H53.0113V41.4336ZM57.1713 37.4816H58.7313C58.714 38.5996 58.727 39.6829 58.7703 40.7316C58.8136 41.7802 58.8873 42.7552 58.9913 43.6566C59.0953 44.5492 59.2253 45.3336 59.3813 46.0096C59.546 46.6856 59.7323 47.2142 59.9403 47.5956C60.157 47.9769 60.3866 48.1676 60.6293 48.1676C60.768 48.1676 60.872 47.9986 60.9413 47.6606C61.0106 47.3226 61.0626 46.7766 61.0973 46.0226C61.262 46.1959 61.4613 46.3606 61.6953 46.5166C61.9293 46.6639 62.1416 46.7766 62.3323 46.8546C62.263 47.6086 62.1546 48.1892 62.0073 48.5966C61.8686 49.0039 61.678 49.2856 61.4353 49.4416C61.1926 49.6062 60.8763 49.6886 60.4863 49.6886C60.0356 49.6886 59.637 49.5282 59.2903 49.2076C58.9523 48.8956 58.662 48.4622 58.4193 47.9076C58.1766 47.3442 57.973 46.6812 57.8083 45.9186C57.6436 45.1472 57.5136 44.3109 57.4183 43.4096C57.3316 42.4996 57.2666 41.5462 57.2233 40.5496C57.1886 39.5442 57.1713 38.5216 57.1713 37.4816ZM60.3563 42.0836L61.7343 42.5126C61.405 43.5612 60.9933 44.5319 60.4993 45.4246C60.014 46.3172 59.4506 47.1232 58.8093 47.8426C58.168 48.5532 57.4443 49.1772 56.6383 49.7146C56.5343 49.5152 56.3783 49.3029 56.1703 49.0776C55.971 48.8609 55.7803 48.6746 55.5983 48.5186C56.3436 48.0852 57.0196 47.5522 57.6263 46.9196C58.2416 46.2782 58.7746 45.5502 59.2253 44.7356C59.6846 43.9209 60.0616 43.0369 60.3563 42.0836ZM63.0733 44.2546H69.6513V45.5156H63.0733V44.2546ZM63.2293 39.6656H69.6123V40.9006H63.2293V39.6656ZM65.4263 43.3316L66.8693 43.6306C66.6526 44.0812 66.4186 44.5449 66.1673 45.0216C65.9246 45.4982 65.682 45.9619 65.4393 46.4126C65.1966 46.8546 64.9713 47.2489 64.7633 47.5956L63.3983 47.1796C63.6063 46.8502 63.8273 46.4646 64.0613 46.0226C64.304 45.5806 64.5423 45.1256 64.7763 44.6576C65.019 44.1809 65.2356 43.7389 65.4263 43.3316ZM67.2593 45.1256L68.7023 45.2556C68.581 45.9402 68.399 46.5296 68.1563 47.0236C67.9223 47.5089 67.606 47.9249 67.2073 48.2716C66.8173 48.6096 66.3406 48.8912 65.7773 49.1166C65.214 49.3506 64.5423 49.5456 63.7623 49.7016C63.719 49.4849 63.6366 49.2552 63.5153 49.0126C63.394 48.7699 63.2683 48.5706 63.1383 48.4146C63.9963 48.3019 64.7026 48.1242 65.2573 47.8816C65.8206 47.6389 66.2626 47.2966 66.5833 46.8546C66.904 46.4126 67.1293 45.8362 67.2593 45.1256ZM68.1823 37.6246L69.4953 38.1576C69.2873 38.4436 69.0793 38.7296 68.8713 39.0156C68.672 39.2929 68.49 39.5312 68.3253 39.7306L67.3243 39.2886C67.4716 39.0632 67.6276 38.7946 67.7923 38.4826C67.957 38.1619 68.087 37.8759 68.1823 37.6246ZM65.7123 37.4556H67.1423V43.5136H65.7123V37.4556ZM63.5543 38.1576L64.6723 37.6896C64.8456 37.9322 65.006 38.2052 65.1533 38.5086C65.3006 38.8119 65.4046 39.0762 65.4653 39.3016L64.2693 39.8216C64.226 39.5962 64.135 39.3276 63.9963 39.0156C63.8576 38.7036 63.7103 38.4176 63.5543 38.1576ZM65.7513 40.2766L66.7523 40.8876C66.5443 41.2342 66.2713 41.5809 65.9333 41.9276C65.604 42.2742 65.2486 42.5992 64.8673 42.9026C64.4946 43.1972 64.1263 43.4486 63.7623 43.6566C63.6756 43.4919 63.5543 43.2969 63.3983 43.0716C63.251 42.8462 63.108 42.6642 62.9693 42.5256C63.316 42.3782 63.667 42.1876 64.0223 41.9536C64.3776 41.7109 64.707 41.4466 65.0103 41.1606C65.3223 40.8659 65.5693 40.5712 65.7513 40.2766ZM67.0123 40.6536C67.1336 40.7142 67.2983 40.8052 67.5063 40.9266C67.723 41.0479 67.9526 41.1822 68.1953 41.3296C68.4466 41.4682 68.672 41.5982 68.8713 41.7196C69.0793 41.8409 69.2266 41.9319 69.3133 41.9926L68.4943 43.0716C68.373 42.9589 68.217 42.8202 68.0263 42.6556C67.8356 42.4909 67.632 42.3219 67.4153 42.1486C67.1986 41.9752 66.9906 41.8106 66.7913 41.6546C66.592 41.4986 66.4186 41.3729 66.2713 41.2776L67.0123 40.6536ZM70.5093 39.8216H75.2933V41.2646H70.5093V39.8216ZM70.6523 37.4556L72.2383 37.6896C72.0996 38.5822 71.922 39.4489 71.7053 40.2896C71.4886 41.1216 71.2243 41.8929 70.9123 42.6036C70.609 43.3056 70.2536 43.9252 69.8463 44.4626C69.7683 44.3586 69.6556 44.2372 69.5083 44.0986C69.361 43.9599 69.205 43.8256 69.0403 43.6956C68.8756 43.5569 68.737 43.4442 68.6243 43.3576C68.9883 42.9069 69.3003 42.3739 69.5603 41.7586C69.829 41.1346 70.0543 40.4586 70.2363 39.7306C70.4183 38.9939 70.557 38.2356 70.6523 37.4556ZM73.0183 40.7056L74.6173 40.8616C74.4266 42.3436 74.132 43.6479 73.7333 44.7746C73.3433 45.9012 72.8016 46.8719 72.1083 47.6866C71.415 48.5012 70.5223 49.1816 69.4303 49.7276C69.3783 49.6062 69.3003 49.4546 69.1963 49.2726C69.0923 49.0906 68.9796 48.9086 68.8583 48.7266C68.737 48.5532 68.6243 48.4146 68.5203 48.3106C69.5083 47.8772 70.3056 47.3139 70.9123 46.6206C71.5276 45.9272 72 45.0909 72.3293 44.1116C72.6586 43.1236 72.8883 41.9882 73.0183 40.7056ZM71.3933 40.9786C71.5753 42.0706 71.831 43.0976 72.1603 44.0596C72.4896 45.0216 72.923 45.8666 73.4603 46.5946C73.9976 47.3226 74.6606 47.8946 75.4493 48.3106C75.3366 48.4059 75.211 48.5316 75.0723 48.6876C74.9336 48.8522 74.7993 49.0212 74.6693 49.1946C74.548 49.3679 74.4483 49.5239 74.3703 49.6626C73.495 49.1426 72.7713 48.4709 72.1993 47.6476C71.636 46.8242 71.181 45.8709 70.8343 44.7876C70.4876 43.6956 70.206 42.5039 69.9893 41.2126L71.3933 40.9786ZM64.5423 47.1926L65.3743 46.1396C65.8856 46.3302 66.3926 46.5512 66.8953 46.8026C67.4066 47.0539 67.879 47.3139 68.3123 47.5826C68.7543 47.8426 69.1226 48.0939 69.4173 48.3366L68.3253 49.4416C68.0566 49.1989 67.7186 48.9432 67.3113 48.6746C66.904 48.4059 66.462 48.1459 65.9853 47.8946C65.5086 47.6346 65.0276 47.4006 64.5423 47.1926Z" fill="#F4BC40"/>
<path d="M95.0153 47.6533V20.9773H100.451L108.191 35.1973L110.891 40.9573H111.071C110.927 39.5653 110.771 38.0413 110.603 36.3853C110.435 34.7293 110.351 33.1453 110.351 31.6333V20.9773H115.391V47.6533H109.955L102.287 33.3973L99.5873 27.6733H99.4073C99.5273 29.1133 99.6713 30.6373 99.8393 32.2453C100.007 33.8533 100.091 35.4253 100.091 36.9613V47.6533H95.0153ZM129.972 48.1573C128.292 48.1573 126.708 47.7373 125.22 46.8973C123.756 46.0573 122.568 44.8573 121.656 43.2973C120.744 41.7133 120.288 39.8053 120.288 37.5733C120.288 35.3413 120.744 33.4453 121.656 31.8853C122.568 30.3013 123.756 29.0893 125.22 28.2493C126.708 27.4093 128.292 26.9893 129.972 26.9893C131.244 26.9893 132.456 27.2293 133.608 27.7093C134.76 28.1893 135.792 28.8853 136.704 29.7973C137.616 30.6853 138.336 31.7893 138.864 33.1093C139.392 34.4053 139.656 35.8933 139.656 37.5733C139.656 39.8053 139.2 41.7133 138.288 43.2973C137.376 44.8573 136.176 46.0573 134.688 46.8973C133.224 47.7373 131.652 48.1573 129.972 48.1573ZM129.972 43.8373C130.884 43.8373 131.652 43.5853 132.276 43.0813C132.924 42.5533 133.404 41.8213 133.716 40.8853C134.052 39.9493 134.22 38.8453 134.22 37.5733C134.22 36.3013 134.052 35.1973 133.716 34.2613C133.404 33.3253 132.924 32.6053 132.276 32.1013C131.652 31.5733 130.884 31.3093 129.972 31.3093C129.06 31.3093 128.28 31.5733 127.632 32.1013C127.008 32.6053 126.528 33.3253 126.192 34.2613C125.88 35.1973 125.724 36.3013 125.724 37.5733C125.724 38.8453 125.88 39.9493 126.192 40.8853C126.528 41.8213 127.008 42.5533 127.632 43.0813C128.28 43.5853 129.06 43.8373 129.972 43.8373ZM146.51 48.1573C145.55 48.1573 144.758 47.8213 144.134 47.1493C143.51 46.4773 143.198 45.6613 143.198 44.7013C143.198 43.6933 143.51 42.8653 144.134 42.2173C144.758 41.5693 145.55 41.2453 146.51 41.2453C147.446 41.2453 148.226 41.5693 148.85 42.2173C149.474 42.8653 149.786 43.6933 149.786 44.7013C149.786 45.6613 149.474 46.4773 148.85 47.1493C148.226 47.8213 147.446 48.1573 146.51 48.1573ZM155.301 47.6533V43.3333H161.061V27.2413H156.201V23.9293C157.545 23.6653 158.697 23.3533 159.657 22.9933C160.641 22.6333 161.553 22.2013 162.393 21.6973H166.317V43.3333H171.321V47.6533H155.301Z" fill="#F4BC40"/>
<path d="M82.614 7.73245L86.314 5.04245H81.7371L80.3231 0.689453L78.9091 5.04245H74.332L78.032 7.73245L76.618 12.0854L80.3181 9.39545L84.0181 12.0854L82.614 7.73245Z" fill="#F4BC3F"/>
<path d="M101.949 7.73245L105.649 5.04245H101.072L99.658 0.689453L98.244 5.04245H93.667L97.367 7.73245L95.953 12.0854L99.653 9.39545L103.353 12.0854L101.949 7.73245Z" fill="#F4BC3F"/>
<path d="M121.284 7.73245L124.984 5.04245H120.407L118.993 0.689453L117.579 5.04245H113.002L116.702 7.73245L115.288 12.0854L118.988 9.39545L122.688 12.0854L121.284 7.73245Z" fill="#F4BC3F"/>
</svg>
